<?xml version="1.0" encoding="utf-8" standalone="no"?>
<!DOCTYPE svg PUBLIC "-//W3C//DTD SVG 1.1//EN"
  "http://www.w3.org/Graphics/SVG/1.1/DTD/svg11.dtd">
<svg xmlns:xlink="http://www.w3.org/1999/xlink" width="488.103134pt" height="275.540634pt" viewBox="0 0 488.103134 275.540634" xmlns="http://www.w3.org/2000/svg" version="1.1">
 <metadata>
  <rdf:RDF xmlns:dc="http://purl.org/dc/elements/1.1/" xmlns:cc="http://creativecommons.org/ns#" xmlns:rdf="http://www.w3.org/1999/02/22-rdf-syntax-ns#">
   <cc:Work>
    <dc:type rdf:resource="http://purl.org/dc/dcmitype/StillImage"/>
    <dc:date>2026-07-15T01:39:18.775840</dc:date>
    <dc:format>image/svg+xml</dc:format>
    <dc:creator>
     <cc:Agent>
      <dc:title>Matplotlib v3.9.4, https://matplotlib.org/</dc:title>
     </cc:Agent>
    </dc:creator>
   </cc:Work>
  </rdf:RDF>
 </metadata>
 <defs>
  <style type="text/css">*{stroke-linejoin: round; stroke-linecap: butt}</style>
 </defs>
 <g id="figure_1">
  <g id="patch_1">
   <path d="M 0 275.540634 
L 488.103134 275.540634 
L 488.103134 0 
L 0 0 
z
" style="fill: #ffffff"/>
  </g>
  <g id="axes_1">
   <g id="patch_2">
    <path d="M 174.989534 143.786875 
L 353.405534 143.786875 
L 353.405534 12.458875 
L 174.989534 12.458875 
z
" style="fill: #ffffff"/>
   </g>
   <g id="matplotlib.axis_1">
    <g id="xtick_1">
     <g id="line2d_1">
      <path d="M 174.989534 143.786875 
L 174.989534 12.458875 
" clip-path="url(#p52ae14489a)" style="fill: none; stroke: #d8dee8; stroke-opacity: 0.8; stroke-width: 0.45; stroke-linecap: square"/>
     </g>
     <g id="line2d_2">
      <defs>
       <path id="mbe5a8c0196" d="M 0 0 
L 0 3.5 
" style="stroke: #5f6673; stroke-width: 0.5"/>
      </defs>
      <g>
       <use xlink:href="#mbe5a8c0196" x="174.989534" y="143.786875" style="fill: #5f6673; stroke: #5f6673; stroke-width: 0.5"/>
      </g>
     </g>
     <g id="text_1">
      <text style="fill: #5f6673; font: 7.5px 'Arial', 'Helvetica', 'Liberation Sans', 'DejaVu Sans', sans-serif; text-anchor: middle" x="174.989534" y="156.155234" transform="rotate(-0 174.989534 156.155234)">0.0</text>
     </g>
    </g>
    <g id="xtick_2">
     <g id="line2d_3">
      <path d="M 210.672734 143.786875 
L 210.672734 12.458875 
" clip-path="url(#p52ae14489a)" style="fill: none; stroke: #d8dee8; stroke-opacity: 0.8; stroke-width: 0.45; stroke-linecap: square"/>
     </g>
     <g id="line2d_4">
      <g>
       <use xlink:href="#mbe5a8c0196" x="210.672734" y="143.786875" style="fill: #5f6673; stroke: #5f6673; stroke-width: 0.5"/>
      </g>
     </g>
     <g id="text_2">
      <text style="fill: #5f6673; font: 7.5px 'Arial', 'Helvetica', 'Liberation Sans', 'DejaVu Sans', sans-serif; text-anchor: middle" x="210.672734" y="156.155234" transform="rotate(-0 210.672734 156.155234)">0.2</text>
     </g>
    </g>
    <g id="xtick_3">
     <g id="line2d_5">
      <path d="M 246.355934 143.786875 
L 246.355934 12.458875 
" clip-path="url(#p52ae14489a)" style="fill: none; stroke: #d8dee8; stroke-opacity: 0.8; stroke-width: 0.45; stroke-linecap: square"/>
     </g>
     <g id="line2d_6">
      <g>
       <use xlink:href="#mbe5a8c0196" x="246.355934" y="143.786875" style="fill: #5f6673; stroke: #5f6673; stroke-width: 0.5"/>
      </g>
     </g>
     <g id="text_3">
      <text style="fill: #5f6673; font: 7.5px 'Arial', 'Helvetica', 'Liberation Sans', 'DejaVu Sans', sans-serif; text-anchor: middle" x="246.355934" y="156.155234" transform="rotate(-0 246.355934 156.155234)">0.4</text>
     </g>
    </g>
    <g id="xtick_4">
     <g id="line2d_7">
      <path d="M 282.039134 143.786875 
L 282.039134 12.458875 
" clip-path="url(#p52ae14489a)" style="fill: none; stroke: #d8dee8; stroke-opacity: 0.8; stroke-width: 0.45; stroke-linecap: square"/>
     </g>
     <g id="line2d_8">
      <g>
       <use xlink:href="#mbe5a8c0196" x="282.039134" y="143.786875" style="fill: #5f6673; stroke: #5f6673; stroke-width: 0.5"/>
      </g>
     </g>
     <g id="text_4">
      <text style="fill: #5f6673; font: 7.5px 'Arial', 'Helvetica', 'Liberation Sans', 'DejaVu Sans', sans-serif; text-anchor: middle" x="282.039134" y="156.155234" transform="rotate(-0 282.039134 156.155234)">0.6</text>
     </g>
    </g>
    <g id="xtick_5">
     <g id="line2d_9">
      <path d="M 317.722334 143.786875 
L 317.722334 12.458875 
" clip-path="url(#p52ae14489a)" style="fill: none; stroke: #d8dee8; stroke-opacity: 0.8; stroke-width: 0.45; stroke-linecap: square"/>
     </g>
     <g id="line2d_10">
      <g>
       <use xlink:href="#mbe5a8c0196" x="317.722334" y="143.786875" style="fill: #5f6673; stroke: #5f6673; stroke-width: 0.5"/>
      </g>
     </g>
     <g id="text_5">
      <text style="fill: #5f6673; font: 7.5px 'Arial', 'Helvetica', 'Liberation Sans', 'DejaVu Sans', sans-serif; text-anchor: middle" x="317.722334" y="156.155234" transform="rotate(-0 317.722334 156.155234)">0.8</text>
     </g>
    </g>
    <g id="xtick_6">
     <g id="line2d_11">
      <path d="M 353.405534 143.786875 
L 353.405534 12.458875 
" clip-path="url(#p52ae14489a)" style="fill: none; stroke: #d8dee8; stroke-opacity: 0.8; stroke-width: 0.45; stroke-linecap: square"/>
     </g>
     <g id="line2d_12">
      <g>
       <use xlink:href="#mbe5a8c0196" x="353.405534" y="143.786875" style="fill: #5f6673; stroke: #5f6673; stroke-width: 0.5"/>
      </g>
     </g>
     <g id="text_6">
      <text style="fill: #5f6673; font: 7.5px 'Arial', 'Helvetica', 'Liberation Sans', 'DejaVu Sans', sans-serif; text-anchor: middle" x="353.405534" y="156.155234" transform="rotate(-0 353.405534 156.155234)">1.0</text>
     </g>
    </g>
    <g id="text_7">
     <text style="fill: #111827; font: 7.2px 'Arial', 'Helvetica', 'Liberation Sans', 'DejaVu Sans', sans-serif; text-anchor: middle" x="264.197534" y="166.887234" transform="rotate(-0 264.197534 166.887234)">false positive rate</text>
    </g>
   </g>
   <g id="matplotlib.axis_2">
    <g id="ytick_1">
     <g id="line2d_13">
      <path d="M 174.989534 143.786875 
L 353.405534 143.786875 
" clip-path="url(#p52ae14489a)" style="fill: none; stroke: #d8dee8; stroke-opacity: 0.8; stroke-width: 0.45; stroke-linecap: square"/>
     </g>
     <g id="line2d_14">
      <defs>
       <path id="m0511210aeb" d="M 0 0 
L -3.5 0 
" style="stroke: #5f6673; stroke-width: 0.5"/>
      </defs>
      <g>
       <use xlink:href="#m0511210aeb" x="174.989534" y="143.786875" style="fill: #5f6673; stroke: #5f6673; stroke-width: 0.5"/>
      </g>
     </g>
     <g id="text_8">
      <text style="fill: #5f6673; font: 7.5px 'Arial', 'Helvetica', 'Liberation Sans', 'DejaVu Sans', sans-serif; text-anchor: end" x="167.989534" y="146.471055" transform="rotate(-0 167.989534 146.471055)">0.0</text>
     </g>
    </g>
    <g id="ytick_2">
     <g id="line2d_15">
      <path d="M 174.989534 117.521275 
L 353.405534 117.521275 
" clip-path="url(#p52ae14489a)" style="fill: none; stroke: #d8dee8; stroke-opacity: 0.8; stroke-width: 0.45; stroke-linecap: square"/>
     </g>
     <g id="line2d_16">
      <g>
       <use xlink:href="#m0511210aeb" x="174.989534" y="117.521275" style="fill: #5f6673; stroke: #5f6673; stroke-width: 0.5"/>
      </g>
     </g>
     <g id="text_9">
      <text style="fill: #5f6673; font: 7.5px 'Arial', 'Helvetica', 'Liberation Sans', 'DejaVu Sans', sans-serif; text-anchor: end" x="167.989534" y="120.205455" transform="rotate(-0 167.989534 120.205455)">0.2</text>
     </g>
    </g>
    <g id="ytick_3">
     <g id="line2d_17">
      <path d="M 174.989534 91.255675 
L 353.405534 91.255675 
" clip-path="url(#p52ae14489a)" style="fill: none; stroke: #d8dee8; stroke-opacity: 0.8; stroke-width: 0.45; stroke-linecap: square"/>
     </g>
     <g id="line2d_18">
      <g>
       <use xlink:href="#m0511210aeb" x="174.989534" y="91.255675" style="fill: #5f6673; stroke: #5f6673; stroke-width: 0.5"/>
      </g>
     </g>
     <g id="text_10">
      <text style="fill: #5f6673; font: 7.5px 'Arial', 'Helvetica', 'Liberation Sans', 'DejaVu Sans', sans-serif; text-anchor: end" x="167.989534" y="93.939855" transform="rotate(-0 167.989534 93.939855)">0.4</text>
     </g>
    </g>
    <g id="ytick_4">
     <g id="line2d_19">
      <path d="M 174.989534 64.990075 
L 353.405534 64.990075 
" clip-path="url(#p52ae14489a)" style="fill: none; stroke: #d8dee8; stroke-opacity: 0.8; stroke-width: 0.45; stroke-linecap: square"/>
     </g>
     <g id="line2d_20">
      <g>
       <use xlink:href="#m0511210aeb" x="174.989534" y="64.990075" style="fill: #5f6673; stroke: #5f6673; stroke-width: 0.5"/>
      </g>
     </g>
     <g id="text_11">
      <text style="fill: #5f6673; font: 7.5px 'Arial', 'Helvetica', 'Liberation Sans', 'DejaVu Sans', sans-serif; text-anchor: end" x="167.989534" y="67.674255" transform="rotate(-0 167.989534 67.674255)">0.6</text>
     </g>
    </g>
    <g id="ytick_5">
     <g id="line2d_21">
      <path d="M 174.989534 38.724475 
L 353.405534 38.724475 
" clip-path="url(#p52ae14489a)" style="fill: none; stroke: #d8dee8; stroke-opacity: 0.8; stroke-width: 0.45; stroke-linecap: square"/>
     </g>
     <g id="line2d_22">
      <g>
       <use xlink:href="#m0511210aeb" x="174.989534" y="38.724475" style="fill: #5f6673; stroke: #5f6673; stroke-width: 0.5"/>
      </g>
     </g>
     <g id="text_12">
      <text style="fill: #5f6673; font: 7.5px 'Arial', 'Helvetica', 'Liberation Sans', 'DejaVu Sans', sans-serif; text-anchor: end" x="167.989534" y="41.408655" transform="rotate(-0 167.989534 41.408655)">0.8</text>
     </g>
    </g>
    <g id="ytick_6">
     <g id="line2d_23">
      <path d="M 174.989534 12.458875 
L 353.405534 12.458875 
" clip-path="url(#p52ae14489a)" style="fill: none; stroke: #d8dee8; stroke-opacity: 0.8; stroke-width: 0.45; stroke-linecap: square"/>
     </g>
     <g id="line2d_24">
      <g>
       <use xlink:href="#m0511210aeb" x="174.989534" y="12.458875" style="fill: #5f6673; stroke: #5f6673; stroke-width: 0.5"/>
      </g>
     </g>
     <g id="text_13">
      <text style="fill: #5f6673; font: 7.5px 'Arial', 'Helvetica', 'Liberation Sans', 'DejaVu Sans', sans-serif; text-anchor: end" x="167.989534" y="15.143055" transform="rotate(-0 167.989534 15.143055)">1.0</text>
     </g>
    </g>
    <g id="text_14">
     <text style="fill: #111827; font: 7.2px 'Arial', 'Helvetica', 'Liberation Sans', 'DejaVu Sans', sans-serif; text-anchor: middle" x="152.133534" y="78.122875" transform="rotate(-90 152.133534 78.122875)">true positive rate</text>
    </g>
   </g>
   <g id="line2d_25">
    <path d="M 174.989534 143.786875 
L 353.405534 12.458875 
" clip-path="url(#p52ae14489a)" style="fill: none; stroke: #d8dee8; stroke-width: 0.9; stroke-linecap: square"/>
   </g>
   <g id="line2d_26">
    <path d="M 174.989534 143.786875 
L 175.596149 143.695991 
L 175.631832 143.635401 
L 175.703198 143.635401 
L 175.917298 143.544517 
L 176.024347 143.423337 
L 176.428757 143.332453 
L 176.523912 143.120389 
L 176.535806 143.120389 
L 176.619067 143.0598 
L 176.619067 143.029505 
L 176.702328 142.878031 
L 176.726117 142.878031 
L 176.738011 142.878031 
L 176.738011 142.787146 
L 176.845061 142.665967 
L 176.880744 142.575083 
L 176.964005 142.272135 
L 176.987794 142.272135 
L 177.201893 142.18125 
L 177.285154 141.999481 
L 177.308942 141.999481 
L 177.606302 141.908597 
L 177.677669 141.757123 
L 177.713352 141.757123 
L 177.772824 141.666238 
L 177.820402 141.514764 
L 177.879874 141.514764 
L 178.105867 141.42388 
L 178.201022 141.090637 
L 178.212917 141.090637 
L 178.343755 140.999753 
L 178.450805 140.817984 
L 178.54596 140.727099 
L 178.617326 140.424151 
L 178.65301 140.424151 
L 178.760059 140.333267 
L 178.867109 140.030319 
L 178.879003 140.030319 
L 178.879003 139.939434 
L 178.879003 139.878845 
L 178.986053 139.878845 
L 179.081208 139.78796 
L 179.152574 139.727371 
L 179.188258 139.727371 
L 179.354779 139.636486 
L 179.43804 139.303243 
L 179.461829 139.303243 
L 179.568878 139.212359 
L 179.652139 139.060885 
L 179.675928 139.060885 
L 179.806766 138.97 
L 179.913816 138.697347 
L 179.949499 138.606463 
L 180.044654 138.515578 
L 180.056549 138.515578 
L 180.151704 138.424694 
L 180.234965 138.333809 
L 180.258754 138.333809 
L 180.449064 138.27322 
L 180.449064 138.242925 
L 180.544219 138.030861 
L 180.556114 138.030861 
L 180.651269 137.939977 
L 180.746424 137.727913 
L 180.758318 137.727913 
L 180.770213 137.727913 
L 180.770213 137.637029 
L 180.829685 137.576439 
L 180.877262 137.576439 
L 180.936734 137.485555 
L 180.972418 137.182606 
L 181.043784 137.182606 
L 181.174622 137.091722 
L 181.245989 136.909953 
L 181.281672 136.909953 
L 181.460088 136.819069 
L 181.567138 136.69789 
L 181.769342 136.607005 
L 181.864498 136.516121 
L 181.876392 136.516121 
L 182.102386 136.425236 
L 182.209435 136.304057 
L 182.292696 136.243467 
L 182.292696 136.213173 
L 182.364062 136.152583 
L 182.399746 136.152583 
L 182.471112 136.061699 
L 182.554373 135.940519 
L 182.578162 135.940519 
L 182.697106 135.87993 
L 182.697106 135.849635 
L 182.804155 135.607276 
L 182.875522 135.516392 
L 182.89931 135.425508 
L 182.982571 135.425508 
L 183.077726 135.334623 
L 183.184776 135.213444 
L 183.244248 135.122559 
L 183.315614 134.971085 
L 183.351298 134.971085 
L 183.422664 134.940791 
L 183.422664 134.880201 
L 183.529714 134.607548 
L 183.589186 134.577253 
L 183.589186 134.516663 
L 183.684341 134.213715 
L 183.696235 134.213715 
L 183.743813 134.153126 
L 183.743813 134.122831 
L 183.827074 133.941062 
L 183.850862 133.941062 
L 183.934123 133.880472 
L 183.934123 133.850177 
L 184.041173 133.638114 
L 184.207694 133.547229 
L 184.290955 133.456345 
L 184.314744 133.456345 
L 184.433688 133.36546 
L 184.445582 133.304871 
L 184.540738 133.304871 
L 184.647787 133.213986 
L 184.707259 133.153397 
L 184.754837 133.153397 
L 184.992725 133.062512 
L 185.099774 132.850449 
L 185.361451 132.759564 
L 185.456606 132.638385 
L 185.468501 132.638385 
L 185.563656 132.547501 
L 185.635022 132.486911 
L 185.670706 132.486911 
L 185.694494 132.486911 
L 185.694494 132.396027 
L 185.694494 132.365732 
L 185.801544 132.365732 
L 185.861016 132.274847 
L 185.884805 132.123373 
L 185.968066 132.123373 
L 186.134587 132.032489 
L 186.229742 131.941604 
L 186.241637 131.941604 
L 186.313003 131.85072 
L 186.420053 131.79013 
L 186.515208 131.699246 
L 186.598469 131.547772 
L 186.622258 131.547772 
L 186.87204 131.456887 
L 186.967195 131.305413 
L 186.97909 131.305413 
L 187.086139 131.214529 
L 187.1694 130.941876 
L 187.193189 130.941876 
L 187.335922 130.850991 
L 187.431077 130.669222 
L 187.442971 130.669222 
L 187.514338 130.578338 
L 187.550021 130.457159 
L 187.621387 130.457159 
L 187.716542 130.366274 
L 187.787909 130.27539 
L 187.823592 130.27539 
L 187.894958 130.184505 
L 188.002008 129.881557 
L 188.109058 129.790673 
L 188.216107 129.487725 
L 188.335051 129.45743 
L 188.335051 129.39684 
L 188.430206 129.215072 
L 188.442101 129.215072 
L 188.644306 129.124187 
L 188.727566 128.972713 
L 188.751355 128.972713 
L 188.798933 128.881829 
L 188.834616 128.790944 
L 188.905982 128.790944 
L 189.001138 128.70006 
L 189.108187 128.609175 
L 189.334181 128.518291 
L 189.405547 128.427406 
L 189.44123 128.427406 
L 189.54828 128.336522 
L 189.54828 128.306227 
L 189.65533 128.306227 
L 189.95269 128.215343 
L 189.95269 128.185048 
L 190.059739 128.185048 
L 190.190578 128.094164 
L 190.297627 127.972984 
L 190.357099 127.912395 
L 190.357099 127.8821 
L 190.44036 127.730626 
L 190.464149 127.730626 
L 190.571198 127.670036 
L 190.571198 127.639741 
L 190.571198 127.609447 
L 190.678248 127.609447 
L 190.761509 127.518562 
L 190.868558 127.367088 
L 191.237285 127.276204 
L 191.284862 127.215614 
L 191.344334 127.215614 
L 191.546539 127.12473 
L 191.606011 127.06414 
L 191.653589 127.06414 
L 191.808216 127.00355 
L 191.808216 126.973256 
L 191.915266 126.852076 
L 191.998526 126.761192 
L 192.105576 126.640013 
L 192.188837 126.549128 
L 192.283992 126.276475 
L 192.295886 126.276475 
L 192.545669 126.185591 
L 192.640824 126.034117 
L 192.652718 126.034117 
L 192.71219 125.973527 
L 192.71219 125.943232 
L 192.807346 125.791758 
L 192.81924 125.791758 
L 192.973867 125.761463 
L 192.973867 125.700874 
L 193.033339 125.5494 
L 193.080917 125.5494 
L 193.330699 125.458515 
L 193.425854 125.397926 
L 193.437749 125.397926 
L 193.675637 125.337336 
L 193.675637 125.307041 
L 193.747003 125.094977 
L 193.782686 125.094977 
L 193.937314 125.004093 
L 194.044363 124.792029 
L 194.258462 124.701145 
L 194.365512 124.579966 
L 194.520139 124.489081 
L 194.579611 124.367902 
L 194.627189 124.367902 
L 194.829394 124.277018 
L 194.936443 124.186133 
L 195.031598 124.095249 
L 195.102965 124.004364 
L 195.138648 124.004364 
L 195.30517 123.91348 
L 195.352747 123.701416 
L 195.412219 123.701416 
L 195.757157 123.610532 
L 195.864206 123.519647 
L 195.971256 123.459058 
L 195.971256 123.428763 
L 196.066411 123.246994 
L 196.078306 123.246994 
L 196.292405 123.15611 
L 196.363771 123.004636 
L 196.399454 123.004636 
L 196.565976 122.913751 
L 196.661131 122.853162 
L 196.673026 122.853162 
L 196.839547 122.792572 
L 196.839547 122.762277 
L 196.851442 122.701687 
L 196.946597 122.701687 
L 197.077435 122.641098 
L 197.077435 122.610803 
L 197.077435 122.580508 
L 197.184485 122.580508 
L 197.422373 122.519919 
L 197.422373 122.489624 
L 197.493739 122.398739 
L 197.529422 122.398739 
L 197.660261 122.307855 
L 197.743522 122.247265 
L 197.76731 122.247265 
L 197.933832 122.156381 
L 198.028987 122.035202 
L 198.040882 122.035202 
L 198.159826 122.004907 
L 198.159826 121.944317 
L 198.231192 121.883728 
L 198.266875 121.883728 
L 198.564235 121.792843 
L 198.623707 121.701959 
L 198.671285 121.701959 
L 199.028117 121.611074 
L 199.123272 121.399011 
L 199.135166 121.399011 
L 199.230322 121.308126 
L 199.230322 121.277831 
L 199.337371 121.277831 
L 199.491998 121.186947 
L 199.575259 121.035473 
L 199.599048 121.035473 
L 199.789358 120.944588 
L 199.813147 120.853704 
L 199.896408 120.853704 
L 200.169979 120.76282 
L 200.241346 120.611346 
L 200.277029 120.611346 
L 200.348395 120.550756 
L 200.348395 120.520461 
L 200.455445 120.368987 
L 200.645755 120.278103 
L 200.752805 120.126629 
L 200.931221 120.035744 
L 200.943115 119.94486 
L 201.03827 119.94486 
L 201.288053 119.853975 
L 201.33563 119.793386 
L 201.395102 119.793386 
L 201.561624 119.702501 
L 201.573518 119.641912 
L 201.668674 119.641912 
L 201.858984 119.551027 
L 201.966034 119.308669 
L 202.215816 119.217784 
L 202.322866 119.1269 
L 202.608331 119.036015 
L 202.715381 118.854247 
L 202.905691 118.763362 
L 202.92948 118.642183 
L 203.012741 118.642183 
L 203.11979 118.551299 
L 203.203051 118.430119 
L 203.22684 118.430119 
L 203.33389 118.339235 
L 203.345784 118.24835 
L 203.440939 118.24835 
L 203.678827 118.157466 
L 203.678827 118.127171 
L 203.785877 118.127171 
L 203.940504 118.036287 
L 204.047554 117.945402 
L 204.142709 117.854518 
L 204.178392 117.793928 
L 204.249758 117.793928 
L 204.654168 117.703044 
L 204.701746 117.521275 
L 204.761218 117.521275 
L 205.022894 117.430391 
L 205.034789 117.369801 
L 205.129944 117.369801 
L 205.213205 117.278917 
L 205.260782 117.218327 
L 205.320254 117.218327 
L 205.688981 117.127442 
L 205.784136 116.975968 
L 205.79603 116.975968 
L 205.938763 116.885084 
L 206.045813 116.67302 
L 206.152862 116.582136 
L 206.224229 116.491251 
L 206.259912 116.491251 
L 206.402645 116.400367 
L 206.402645 116.339777 
L 206.509694 116.339777 
L 206.747582 116.248893 
L 206.854632 116.188303 
L 206.961682 116.127714 
L 206.961682 116.097419 
L 206.997365 116.036829 
L 207.068731 116.036829 
L 207.247147 115.97624 
L 207.247147 115.945945 
L 207.342302 115.85506 
L 207.354197 115.85506 
L 207.663451 115.764176 
L 207.770501 115.582407 
L 207.937022 115.491523 
L 208.020283 115.400638 
L 208.044072 115.400638 
L 208.293854 115.340049 
L 208.293854 115.309754 
L 208.365221 115.127985 
L 208.400904 115.127985 
L 208.496059 115.037101 
L 208.543637 114.946216 
L 208.603109 114.946216 
L 209.06699 114.855332 
L 209.17404 114.764447 
L 209.400034 114.673563 
L 209.447611 114.612973 
L 209.507083 114.612973 
L 209.673605 114.552384 
L 209.673605 114.522089 
L 209.780654 114.40091 
L 209.947176 114.310025 
L 210.030437 114.097962 
L 210.054226 114.097962 
L 210.137486 114.037372 
L 210.137486 114.007077 
L 210.244536 113.795013 
L 210.601368 113.704129 
L 210.637051 113.643539 
L 210.708418 113.643539 
L 211.100933 113.552655 
L 211.196088 113.431476 
L 211.207982 113.431476 
L 211.350715 113.370886 
L 211.350715 113.340591 
L 211.36261 113.249707 
L 211.457765 113.249707 
L 211.564814 113.158822 
L 211.671864 113.007348 
L 211.838386 112.916464 
L 211.838386 112.886169 
L 211.945435 112.886169 
L 212.135746 112.795285 
L 212.207112 112.674105 
L 212.242795 112.674105 
L 212.385528 112.583221 
L 212.480683 112.492337 
L 212.492578 112.492337 
L 212.718571 112.401452 
L 212.813726 112.219683 
L 212.825621 112.219683 
L 213.348974 112.128799 
L 213.456024 112.00762 
L 213.63444 111.916735 
L 213.670123 111.856146 
L 213.74149 111.856146 
L 213.908011 111.765261 
L 214.003166 111.704672 
L 214.015061 111.704672 
L 214.312421 111.613787 
L 214.312421 111.583492 
L 214.41947 111.583492 
L 214.693042 111.492608 
L 214.788197 111.371429 
L 214.800091 111.371429 
L 215.049874 111.280544 
L 215.145029 111.159365 
L 215.156923 111.159365 
L 215.501861 111.068481 
L 215.549438 110.947301 
L 215.60891 110.947301 
L 215.894376 110.856417 
L 215.930059 110.795827 
L 216.001426 110.795827 
L 216.025214 110.795827 
L 216.025214 110.704943 
L 216.132264 110.583764 
L 216.263102 110.523174 
L 216.263102 110.492879 
L 216.298786 110.43229 
L 216.370152 110.43229 
L 216.893506 110.3717 
L 216.893506 110.341405 
L 217.000555 110.280815 
L 217.226549 110.250521 
L 217.226549 110.189931 
L 217.321704 110.099047 
L 217.333598 110.099047 
L 217.642853 110.008162 
L 217.654747 109.947573 
L 217.749902 109.947573 
L 217.940213 109.856688 
L 217.98779 109.765804 
L 218.047262 109.765804 
L 218.308939 109.674919 
L 218.368411 109.55374 
L 218.415989 109.55374 
L 218.665771 109.462856 
L 218.749032 109.311382 
L 218.772821 109.311382 
L 219.272386 109.220497 
L 219.331858 109.159908 
L 219.379435 109.159908 
L 219.58164 109.069023 
L 219.653006 109.008433 
L 219.68869 109.008433 
L 219.843317 108.917549 
L 219.914683 108.856959 
L 219.950366 108.856959 
L 220.17636 108.766075 
L 220.212043 108.705485 
L 220.28341 108.705485 
L 220.47372 108.614601 
L 220.556981 108.463127 
L 220.58077 108.463127 
L 220.723502 108.402537 
L 220.723502 108.372242 
L 220.782974 108.251063 
L 220.830552 108.251063 
L 221.17549 108.160179 
L 221.223067 107.948115 
L 221.282539 107.948115 
L 221.520427 107.857231 
L 221.591794 107.766346 
L 221.627477 107.766346 
L 221.746421 107.675462 
L 221.85347 107.554283 
L 222.353035 107.463398 
L 222.353035 107.433103 
L 222.460085 107.433103 
L 222.733656 107.342219 
L 222.828811 107.190745 
L 222.840706 107.190745 
L 222.95965 107.130155 
L 222.95965 107.09986 
L 222.95965 107.069566 
L 223.066699 107.069566 
L 223.268904 106.978681 
L 223.34027 106.918092 
L 223.375954 106.918092 
L 223.732786 106.827207 
L 223.816046 106.706028 
L 223.839835 106.706028 
L 224.208562 106.615144 
L 224.279928 106.493964 
L 224.315611 106.493964 
L 224.458344 106.40308 
L 224.505922 106.34249 
L 224.565394 106.34249 
L 224.838965 106.251606 
L 224.838965 106.221311 
L 224.946014 106.221311 
L 225.267163 106.160721 
L 225.267163 106.130427 
L 225.267163 106.069837 
L 225.374213 106.069837 
L 225.481262 106.039542 
L 225.481262 105.978953 
L 225.481262 105.948658 
L 225.588312 105.948658 
L 225.861883 105.857773 
L 225.897566 105.797184 
L 225.968933 105.797184 
L 226.254398 105.706299 
L 226.254398 105.676004 
L 226.361448 105.676004 
L 226.397131 105.615415 
L 226.397131 105.58512 
L 226.480392 105.52453 
L 226.504181 105.52453 
L 226.71828 105.494236 
L 226.71828 105.433646 
L 226.789646 105.282172 
L 226.82533 105.282172 
L 227.003746 105.191287 
L 227.087006 104.918634 
L 227.110795 104.918634 
L 227.455733 104.888339 
L 227.455733 104.82775 
L 227.538994 104.736865 
L 227.562782 104.736865 
L 227.753093 104.645981 
L 227.824459 104.585391 
L 227.860142 104.585391 
L 228.228869 104.494507 
L 228.240763 104.433917 
L 228.335918 104.433917 
L 228.60949 104.343033 
L 228.716539 104.161264 
L 228.776011 104.070379 
L 228.776011 104.040085 
L 228.883061 104.040085 
L 229.275576 103.9492 
L 229.370731 103.858316 
L 229.382626 103.858316 
L 229.656197 103.767431 
L 229.668091 103.676547 
L 229.763246 103.676547 
L 229.88219 103.585663 
L 229.98924 103.434188 
L 230.310389 103.373599 
L 230.310389 103.343304 
L 230.39365 103.222125 
L 230.417438 103.222125 
L 230.643432 103.13124 
L 230.643432 103.100946 
L 230.750482 103.100946 
L 230.809954 103.040356 
L 230.809954 103.010061 
L 230.917003 102.949472 
L 231.214363 102.858587 
L 231.214363 102.828292 
L 231.321413 102.828292 
L 231.464146 102.767703 
L 231.464146 102.737408 
L 231.523618 102.646523 
L 231.571195 102.646523 
L 231.928027 102.555639 
L 231.928027 102.495049 
L 232.035077 102.495049 
L 232.308648 102.404165 
L 232.403803 102.343575 
L 232.415698 102.343575 
L 232.748741 102.252691 
L 232.843896 102.070922 
L 232.85579 102.070922 
L 232.998523 101.980038 
L 233.105573 101.798269 
L 233.283989 101.707384 
L 233.319672 101.586205 
L 233.391038 101.586205 
L 233.545666 101.495321 
L 233.617032 101.374141 
L 233.652715 101.374141 
L 233.783554 101.313552 
L 233.783554 101.283257 
L 233.890603 101.040899 
L 234.021442 100.950014 
L 234.116597 100.85913 
L 234.128491 100.85913 
L 234.378274 100.768245 
L 234.390168 100.707656 
L 234.485323 100.707656 
L 234.616162 100.647066 
L 234.616162 100.616771 
L 234.699422 100.465297 
L 234.723211 100.465297 
L 234.984888 100.374413 
L 235.056254 100.283528 
L 235.091938 100.283528 
L 235.53203 100.192644 
L 235.555819 100.132054 
L 235.63908 100.132054 
L 235.876968 100.04117 
L 235.876968 100.010875 
L 235.984018 100.010875 
L 236.281378 99.919991 
L 236.364638 99.768517 
L 236.388427 99.768517 
L 236.483582 99.677632 
L 236.53116 99.617042 
L 236.590632 99.617042 
L 236.769048 99.526158 
L 236.840414 99.435274 
L 236.876098 99.435274 
L 237.185352 99.404979 
L 237.185352 99.344389 
L 237.280507 99.22321 
L 237.292402 99.22321 
L 237.42324 99.16262 
L 237.42324 99.132326 
L 237.506501 99.011146 
L 237.53029 99.011146 
L 237.637339 98.920262 
L 237.732494 98.799083 
L 237.744389 98.799083 
L 237.839544 98.738493 
L 237.839544 98.708198 
L 237.887122 98.647609 
L 237.946594 98.647609 
L 238.220165 98.587019 
L 238.220165 98.556724 
L 238.31532 98.40525 
L 238.327214 98.40525 
L 238.565102 98.314366 
L 238.624574 98.223481 
L 238.672152 98.223481 
L 238.874357 98.132597 
L 238.981406 97.950828 
L 239.278766 97.859944 
L 239.350133 97.799354 
L 239.385816 97.799354 
L 239.599915 97.708469 
L 239.659387 97.617585 
L 239.706965 97.617585 
L 240.016219 97.526701 
L 240.123269 97.284342 
L 240.468206 97.193458 
L 240.491995 97.102573 
L 240.575256 97.102573 
L 240.670411 97.011689 
L 240.670411 96.981394 
L 240.777461 96.981394 
L 240.955877 96.89051 
L 241.003454 96.799625 
L 241.062926 96.799625 
L 241.265131 96.708741 
L 241.348392 96.648151 
L 241.372181 96.648151 
L 241.58628 96.587562 
L 241.58628 96.557267 
L 241.58628 96.526972 
L 241.69333 96.526972 
L 241.943112 96.436087 
L 242.050162 96.254319 
L 242.442677 96.193729 
L 242.442677 96.163434 
L 242.537832 96.102845 
L 242.549726 96.102845 
L 242.58541 96.102845 
L 242.58541 96.01196 
L 242.692459 95.921076 
L 242.989819 95.830191 
L 243.096869 95.648422 
L 243.394229 95.557538 
L 243.501278 95.436359 
L 243.846216 95.345474 
L 243.929477 95.25459 
L 243.953266 95.25459 
L 244.274414 95.194 
L 244.274414 95.163705 
L 244.381464 95.103116 
L 244.619352 95.012231 
L 244.714507 94.830463 
L 244.726402 94.830463 
L 244.999973 94.739578 
L 245.107022 94.557809 
L 245.547115 94.466925 
L 245.547115 94.43663 
L 245.654165 94.43663 
L 246.177518 94.345746 
L 246.177518 94.285156 
L 246.284568 94.285156 
L 246.677083 94.194272 
L 246.784133 93.891323 
L 246.903077 93.830734 
L 246.903077 93.800439 
L 246.998232 93.739849 
L 247.010126 93.739849 
L 247.355064 93.648965 
L 247.355064 93.61867 
L 247.462114 93.61867 
L 247.72379 93.527786 
L 247.747579 93.436901 
L 247.83084 93.436901 
L 248.116306 93.346017 
L 248.163883 93.224838 
L 248.223355 93.224838 
L 248.485032 93.164248 
L 248.485032 93.133953 
L 248.580187 92.92189 
L 248.592082 92.92189 
L 248.996491 92.831005 
L 249.055963 92.770415 
L 249.103541 92.770415 
L 249.50795 92.679531 
L 249.579317 92.558352 
L 249.615 92.558352 
L 249.876677 92.467467 
L 249.959938 92.376583 
L 249.983726 92.376583 
L 250.162142 92.285699 
L 250.257298 92.164519 
L 250.269192 92.164519 
L 250.352453 92.073635 
L 250.364347 91.98275 
L 250.459502 91.98275 
L 250.542763 91.922161 
L 250.542763 91.891866 
L 250.649813 91.770687 
L 250.792546 91.679802 
L 250.899595 91.528328 
L 251.173166 91.437444 
L 251.244533 91.316265 
L 251.280216 91.316265 
L 251.565682 91.22538 
L 251.565682 91.195085 
L 251.672731 91.195085 
L 252.017669 91.104201 
L 252.112824 90.952727 
L 252.124718 90.952727 
L 252.219874 90.892137 
L 252.219874 90.861842 
L 252.267451 90.801253 
L 252.326923 90.801253 
L 252.5886 90.740663 
L 252.5886 90.710368 
L 252.5886 90.649779 
L 252.69565 90.649779 
L 252.862171 90.558894 
L 252.957326 90.498305 
L 252.969221 90.498305 
L 253.337947 90.40742 
L 253.409314 90.316536 
L 253.444997 90.316536 
L 253.623413 90.225651 
L 253.718568 90.074177 
L 253.730462 90.074177 
L 253.944562 89.983293 
L 254.015928 89.922703 
L 254.051611 89.922703 
L 254.218133 89.831819 
L 254.325182 89.771229 
L 254.420338 89.680345 
L 254.527387 89.407692 
L 254.705803 89.316807 
L 254.717698 89.256218 
L 254.812853 89.256218 
L 254.96748 89.165333 
L 255.07453 89.074449 
L 255.181579 88.983564 
L 255.205368 88.89268 
L 255.288629 88.89268 
L 255.574094 88.801795 
L 255.633566 88.710911 
L 255.681144 88.710911 
L 255.811982 88.650321 
L 255.811982 88.620027 
L 255.907138 88.468553 
L 255.919032 88.468553 
L 256.085554 88.407963 
L 256.085554 88.377668 
L 256.168814 88.195899 
L 256.192603 88.195899 
L 256.311547 88.105015 
L 256.371019 88.044425 
L 256.418597 88.044425 
L 256.549435 87.953541 
L 256.64459 87.802067 
L 256.656485 87.802067 
L 256.85869 87.711182 
L 256.882478 87.620298 
L 256.965739 87.620298 
L 257.227416 87.529413 
L 257.227416 87.499119 
L 257.334466 87.499119 
L 257.881608 87.408234 
L 257.929186 87.31735 
L 257.988658 87.31735 
L 258.036235 87.287055 
L 258.036235 87.226465 
L 258.095707 87.135581 
L 258.143285 87.135581 
L 258.309806 87.044696 
L 258.309806 87.014402 
L 258.416856 87.014402 
L 258.452539 86.923517 
L 258.488222 86.862928 
L 258.559589 86.862928 
L 258.845054 86.772043 
L 258.880738 86.711454 
L 258.952104 86.711454 
L 259.071048 86.650864 
L 259.071048 86.620569 
L 259.178098 86.4388 
L 259.415986 86.347916 
L 259.499246 86.196442 
L 259.523035 86.196442 
L 259.856078 86.105557 
L 259.951234 85.893494 
L 259.963128 85.893494 
L 260.177227 85.802609 
L 260.248594 85.74202 
L 260.284277 85.74202 
L 260.438904 85.651135 
L 260.522165 85.499661 
L 260.545954 85.499661 
L 260.736264 85.408777 
L 260.736264 85.378482 
L 260.843314 85.378482 
L 261.176357 85.287597 
L 261.283406 85.136123 
L 261.664027 85.045239 
L 261.759182 84.893765 
L 261.771077 84.893765 
L 262.008965 84.802881 
L 262.008965 84.772586 
L 262.116014 84.772586 
L 262.223064 84.711996 
L 262.223064 84.681701 
L 262.330114 84.590817 
L 262.496635 84.499932 
L 262.59179 84.348458 
L 262.603685 84.348458 
L 262.722629 84.257574 
L 262.793995 84.196984 
L 262.829678 84.196984 
L 263.10325 84.136395 
L 263.10325 84.1061 
L 263.10325 84.04551 
L 263.210299 84.04551 
L 263.424398 83.954626 
L 263.531448 83.894036 
L 263.733653 83.803152 
L 263.828808 83.591088 
L 263.840702 83.591088 
L 264.031013 83.530499 
L 264.031013 83.500204 
L 264.114274 83.379024 
L 264.138062 83.379024 
L 264.209429 83.28814 
L 264.29269 83.106371 
L 264.316478 83.106371 
L 264.554366 83.015487 
L 264.649522 82.894308 
L 264.661416 82.894308 
L 264.827938 82.803423 
L 264.923093 82.712539 
L 264.934987 82.712539 
L 265.160981 82.621654 
L 265.256136 82.47018 
L 265.26803 82.47018 
L 265.446446 82.379296 
L 265.446446 82.349001 
L 265.553496 82.349001 
L 265.648651 82.288411 
L 265.648651 82.258117 
L 265.720018 82.197527 
L 265.755701 82.197527 
L 266.136322 82.106642 
L 266.136322 82.076348 
L 266.243371 82.076348 
L 266.326632 82.015758 
L 266.326632 81.985463 
L 266.421787 81.803694 
L 266.433682 81.803694 
L 266.540731 81.71281 
L 266.612098 81.591631 
L 266.647781 81.591631 
L 266.897563 81.500746 
L 266.933246 81.318977 
L 267.004613 81.318977 
L 267.34955 81.228093 
L 267.409022 81.106914 
L 267.4566 81.106914 
L 267.551755 81.046324 
L 267.551755 81.016029 
L 267.599333 80.925145 
L 267.658805 80.925145 
L 267.801538 80.83426 
L 267.908587 80.743376 
L 268.003742 80.652492 
L 268.087003 80.501018 
L 268.110792 80.501018 
L 268.324891 80.410133 
L 268.324891 80.379838 
L 268.431941 80.379838 
L 268.622251 80.288954 
L 268.729301 80.107185 
L 268.848245 80.016301 
L 268.931506 79.955711 
L 268.955294 79.955711 
L 268.979083 79.864827 
L 269.002872 79.804237 
L 269.086133 79.804237 
L 269.395387 79.713353 
L 269.478648 79.531584 
L 269.502437 79.531584 
L 269.692747 79.470994 
L 269.692747 79.440699 
L 269.692747 79.410404 
L 269.799797 79.410404 
L 270.037685 79.31952 
L 270.13284 79.137751 
L 270.144734 79.137751 
L 270.275573 79.046867 
L 270.346939 78.895393 
L 270.382622 78.895393 
L 270.715666 78.804508 
L 270.822715 78.683329 
L 271.203336 78.592445 
L 271.227125 78.531855 
L 271.310386 78.531855 
L 271.369858 78.471265 
L 271.369858 78.440971 
L 271.369858 78.410676 
L 271.476907 78.410676 
L 271.667218 78.319791 
L 271.774267 78.198612 
L 271.881317 78.107728 
L 271.940789 77.925959 
L 271.988366 77.925959 
L 272.273832 77.835074 
L 272.368987 77.653305 
L 272.380882 77.653305 
L 272.70203 77.592716 
L 272.70203 77.562421 
L 272.761502 77.501831 
L 272.80908 77.501831 
L 273.011285 77.410947 
L 273.094546 77.289768 
L 273.118334 77.289768 
L 273.261067 77.198883 
L 273.320539 77.077704 
L 273.368117 77.077704 
L 273.653582 76.98682 
L 273.653582 76.956525 
L 273.760632 76.956525 
L 273.99852 76.86564 
L 274.069886 76.774756 
L 274.10557 76.774756 
L 274.462402 76.683872 
L 274.545662 76.592987 
L 274.569451 76.592987 
L 274.628923 76.532397 
L 274.628923 76.502103 
L 274.724078 76.411218 
L 274.735973 76.411218 
L 275.104699 76.320334 
L 275.199854 76.138565 
L 275.211749 76.138565 
L 275.425848 76.047681 
L 275.509109 75.956796 
L 275.532898 75.956796 
L 275.723208 75.896206 
L 275.723208 75.865912 
L 275.758891 75.805322 
L 275.830258 75.805322 
L 275.913518 75.744732 
L 275.913518 75.714438 
L 275.913518 75.684143 
L 276.020568 75.684143 
L 276.08004 75.623553 
L 276.08004 75.593258 
L 276.175195 75.441784 
L 276.18709 75.441784 
L 276.353611 75.3509 
L 276.3774 75.260015 
L 276.460661 75.260015 
L 276.56771 75.169131 
L 276.662866 75.108541 
L 276.67476 75.108541 
L 276.769915 75.017657 
L 276.876965 74.835888 
L 277.091064 74.775299 
L 277.091064 74.745004 
L 277.198114 74.623824 
L 277.447896 74.563235 
L 277.447896 74.53294 
L 277.471685 74.47235 
L 277.554946 74.47235 
L 277.887989 74.381466 
L 277.947461 74.290582 
L 277.995038 74.290582 
L 278.232926 74.199697 
L 278.328082 74.048223 
L 278.339976 74.048223 
L 278.887118 73.957339 
L 278.994168 73.896749 
L 279.410472 73.805865 
L 279.410472 73.745275 
L 279.517522 73.745275 
L 279.731621 73.684685 
L 279.731621 73.654391 
L 279.826776 73.533211 
L 279.83867 73.533211 
L 280.195502 73.442327 
L 280.278763 73.351442 
L 280.302552 73.351442 
L 280.528546 73.260558 
L 280.528546 73.199968 
L 280.635595 73.199968 
L 281.147054 73.109084 
L 281.218421 72.927315 
L 281.254104 72.927315 
L 281.456309 72.836431 
L 281.551464 72.715251 
L 281.563358 72.715251 
L 281.741774 72.624367 
L 281.741774 72.594072 
L 281.848824 72.594072 
L 281.979662 72.503188 
L 282.039134 72.382009 
L 282.086712 72.382009 
L 282.336494 72.351714 
L 282.336494 72.291124 
L 282.395966 72.169945 
L 282.443544 72.169945 
L 282.669538 72.07906 
L 282.669538 72.048766 
L 282.776587 72.048766 
L 283.073947 71.957881 
L 283.073947 71.927586 
L 283.180997 71.927586 
L 283.32373 71.897292 
L 283.32373 71.836702 
L 283.418885 71.685228 
L 283.430779 71.685228 
L 283.537829 71.594344 
L 283.632984 71.473164 
L 283.644878 71.473164 
L 283.847083 71.38228 
L 283.930344 71.200511 
L 283.954133 71.200511 
L 284.00171 71.109627 
L 284.037394 71.049037 
L 284.10876 71.049037 
L 284.263387 70.958153 
L 284.358542 70.867268 
L 284.370437 70.867268 
L 284.536958 70.776384 
L 284.620219 70.685499 
L 284.644008 70.685499 
L 284.881896 70.594615 
L 284.988946 70.50373 
L 285.131678 70.412846 
L 285.19115 70.352256 
L 285.238728 70.352256 
L 285.417144 70.261372 
L 285.440933 70.200782 
L 285.524194 70.200782 
L 285.773976 70.109898 
L 285.857237 70.049308 
L 285.881026 70.049308 
L 285.964286 69.958424 
L 286.011864 69.867539 
L 286.071336 69.867539 
L 286.285435 69.776655 
L 286.356802 69.564591 
L 286.392485 69.564591 
L 286.499534 69.504002 
L 286.499534 69.473707 
L 286.606584 69.291938 
L 286.773106 69.201054 
L 286.796894 69.110169 
L 286.880155 69.110169 
L 287.284565 69.019285 
L 287.391614 68.9284 
L 287.748446 68.837516 
L 287.772235 68.776926 
L 287.855496 68.776926 
L 288.188539 68.686042 
L 288.295589 68.473978 
L 288.56916 68.383094 
L 288.56916 68.352799 
L 288.67621 68.352799 
L 288.997358 68.261914 
L 289.104408 68.140735 
L 289.306613 68.049851 
L 289.35419 67.989261 
L 289.413662 67.989261 
L 289.615867 67.898377 
L 289.687234 67.837787 
L 289.722917 67.837787 
L 289.996488 67.746903 
L 290.067854 67.625723 
L 290.103538 67.625723 
L 290.293848 67.534839 
L 290.293848 67.504544 
L 290.400898 67.504544 
L 290.507947 67.41366 
L 290.614997 67.231891 
L 290.805307 67.141006 
L 290.864779 67.050122 
L 290.912357 67.050122 
L 291.13835 66.959238 
L 291.2454 66.898648 
L 291.423816 66.807764 
L 291.471394 66.716879 
L 291.530866 66.716879 
L 291.756859 66.625995 
L 291.756859 66.5957 
L 291.863909 66.5957 
L 292.256424 66.53511 
L 292.256424 66.504815 
L 292.280213 66.444226 
L 292.363474 66.444226 
L 292.399157 66.353341 
L 292.506206 66.201867 
L 292.62515 66.110983 
L 292.684622 66.050393 
L 292.7322 66.050393 
L 292.910616 65.959509 
L 292.993877 65.868624 
L 293.017666 65.868624 
L 293.112821 65.83833 
L 293.112821 65.77774 
L 293.112821 65.747445 
L 293.21987 65.747445 
L 293.469653 65.656561 
L 293.529125 65.565676 
L 293.576702 65.565676 
L 293.778907 65.474792 
L 293.874062 65.414202 
L 293.885957 65.414202 
L 294.100056 65.353613 
L 294.100056 65.323318 
L 294.100056 65.293023 
L 294.207106 65.293023 
L 294.444994 65.202139 
L 294.540149 65.141549 
L 294.552043 65.141549 
L 294.992136 65.050665 
L 295.099186 64.899191 
L 295.337074 64.808306 
L 295.337074 64.778011 
L 295.444123 64.778011 
L 295.574962 64.717422 
L 295.574962 64.687127 
L 295.622539 64.596242 
L 295.682011 64.596242 
L 295.979371 64.505358 
L 296.062632 64.323589 
L 296.086421 64.323589 
L 296.205365 64.232705 
L 296.205365 64.172115 
L 296.312414 64.172115 
L 296.752507 64.081231 
L 296.859557 63.899462 
L 297.073656 63.808577 
L 297.145022 63.717693 
L 297.180706 63.717693 
L 297.501854 63.626809 
L 297.525643 63.475335 
L 297.608904 63.475335 
L 297.763531 63.414745 
L 297.763531 63.38445 
L 297.834898 63.263271 
L 297.870581 63.263271 
L 297.882475 63.263271 
L 297.882475 63.172386 
L 297.882475 63.142092 
L 297.989525 63.142092 
L 298.346357 63.051207 
L 298.453406 62.839144 
L 298.655611 62.748259 
L 298.750766 62.687669 
L 298.762661 62.687669 
L 298.929182 62.62708 
L 298.929182 62.596785 
L 299.036232 62.536195 
L 299.16707 62.445311 
L 299.27412 62.354427 
L 299.309803 62.293837 
L 299.309803 62.263542 
L 299.416853 62.081773 
L 299.595269 61.990889 
L 299.595269 61.960594 
L 299.702318 61.960594 
L 299.86884 61.900004 
L 299.86884 61.86971 
L 299.86884 61.839415 
L 299.97589 61.839415 
L 300.035362 61.778825 
L 300.035362 61.74853 
L 300.142411 61.687941 
L 300.201883 61.597056 
L 300.225672 61.536467 
L 300.308933 61.536467 
L 300.451666 61.445582 
L 300.46356 61.384993 
L 300.558715 61.384993 
L 301.010702 61.294108 
L 301.093963 61.203224 
L 301.117752 61.203224 
L 301.24859 61.112339 
L 301.35564 60.99116 
L 301.534056 60.900276 
L 301.629211 60.748802 
L 301.641106 60.748802 
L 301.807627 60.657917 
L 301.902782 60.597328 
L 301.914677 60.597328 
L 302.116882 60.536738 
L 302.116882 60.506443 
L 302.116882 60.476148 
L 302.223931 60.476148 
L 302.319086 60.385264 
L 302.390453 60.23379 
L 302.426136 60.23379 
L 302.818651 60.142905 
L 302.901912 60.082316 
L 302.925701 60.082316 
L 303.080328 59.991431 
L 303.151694 59.809663 
L 303.187378 59.809663 
L 303.508526 59.718778 
L 303.615576 59.658188 
L 303.853464 59.567304 
L 303.92483 59.47642 
L 303.960514 59.47642 
L 304.234085 59.385535 
L 304.317346 59.234061 
L 304.341134 59.234061 
L 304.579022 59.143177 
L 304.579022 59.082587 
L 304.686072 59.082587 
L 304.900171 59.021997 
L 304.900171 58.991703 
L 305.007221 58.931113 
L 305.126165 58.840229 
L 305.197531 57.598141 
L 305.233214 57.598141 
L 305.685202 57.507257 
L 305.744674 57.446667 
L 305.792251 57.446667 
L 305.92309 57.386078 
L 305.92309 57.355783 
L 305.92309 57.325488 
L 306.030139 57.325488 
L 306.172872 57.264899 
L 306.172872 57.234604 
L 306.256133 57.08313 
L 306.279922 57.08313 
L 306.327499 57.02254 
L 306.327499 56.992245 
L 306.434549 56.901361 
L 306.589176 56.810476 
L 306.612965 56.749887 
L 306.696226 56.749887 
L 306.827064 56.689297 
L 306.827064 56.659002 
L 306.886536 56.568118 
L 306.934114 56.568118 
L 307.076846 56.507528 
L 307.076846 56.477233 
L 307.136318 56.26517 
L 307.183896 56.26517 
L 307.290946 56.174285 
L 307.386101 56.113696 
L 307.397995 56.113696 
L 307.505045 56.022811 
L 307.528834 55.962222 
L 307.612094 55.962222 
L 307.695355 55.901632 
L 307.695355 55.871337 
L 307.802405 55.780453 
L 308.00461 55.689568 
L 308.00461 55.598684 
L 308.111659 55.598684 
L 308.361442 55.538094 
L 308.361442 55.5078 
L 308.361442 55.477505 
L 308.468491 55.477505 
L 308.575541 55.38662 
L 308.575541 55.356326 
L 308.68259 55.356326 
L 308.825323 55.265441 
L 308.825323 55.235146 
L 308.932373 55.235146 
L 308.968056 55.235146 
L 308.968056 55.144262 
L 308.968056 55.113967 
L 309.075106 55.113967 
L 309.146472 55.023083 
L 309.229733 54.901903 
L 309.253522 54.901903 
L 309.431938 54.811019 
L 309.538987 54.750429 
L 309.907714 54.659545 
L 310.002869 54.538366 
L 310.014763 54.538366 
L 310.252651 54.447481 
L 310.27644 54.356597 
L 310.359701 54.356597 
L 310.597589 54.265712 
L 310.645166 54.053649 
L 310.704638 54.053649 
L 310.883054 53.962764 
L 310.97821 53.87188 
L 310.990104 53.87188 
L 311.120942 53.780995 
L 311.192309 53.690111 
L 311.227992 53.690111 
L 311.453986 53.599227 
L 311.537246 53.417458 
L 311.561035 53.417458 
L 311.679979 53.326573 
L 311.679979 53.265984 
L 311.787029 53.265984 
L 311.905973 53.175099 
L 312.001128 52.99333 
L 312.013022 52.99333 
L 312.108178 52.902446 
L 312.179544 52.781267 
L 312.215227 52.781267 
L 312.381749 52.720677 
L 312.381749 52.690382 
L 312.429326 52.569203 
L 312.488798 52.569203 
L 312.619637 52.478319 
L 312.726686 52.266255 
L 312.798053 52.175371 
L 312.905102 51.993602 
L 312.976469 51.933012 
L 312.976469 51.902717 
L 313.047835 51.751243 
L 313.083518 51.751243 
L 313.214357 51.660359 
L 313.309512 51.418 
L 313.321406 51.418 
L 313.583083 51.327116 
L 313.678238 51.084757 
L 313.690133 51.084757 
L 313.797182 50.993873 
L 313.820971 50.933283 
L 313.904232 50.933283 
L 314.106437 50.842399 
L 314.189698 50.630335 
L 314.213486 50.630335 
L 314.308642 50.539451 
L 314.403797 50.387977 
L 314.415691 50.387977 
L 314.665474 50.327387 
L 314.665474 50.297092 
L 314.760629 50.145618 
L 314.772523 50.145618 
L 315.0342 50.054734 
L 315.14125 49.782081 
L 315.283982 49.721491 
L 315.283982 49.691196 
L 315.379138 49.539722 
L 315.391032 49.539722 
L 315.52187 49.448838 
L 315.62892 49.236774 
L 315.700286 49.14589 
L 315.807336 48.964121 
L 315.890597 48.873236 
L 315.890597 48.842941 
L 315.997646 48.842941 
L 316.176062 48.752057 
L 316.199851 48.600583 
L 316.283112 48.600583 
L 316.402056 48.539993 
L 316.402056 48.509699 
L 316.41395 48.418814 
L 316.509106 48.418814 
L 316.81836 48.32793 
L 316.842149 47.570559 
L 316.92541 47.570559 
L 317.020565 47.479675 
L 317.103826 47.358496 
L 317.127614 47.358496 
L 317.282242 47.267611 
L 317.389291 47.176727 
L 317.555813 47.085842 
L 317.662862 46.964663 
L 317.71044 46.873779 
L 317.805595 46.722305 
L 317.81749 46.722305 
L 317.912645 46.63142 
L 318.019694 46.116409 
L 318.079166 46.025524 
L 318.138638 45.843755 
L 318.186216 45.843755 
L 318.221899 45.783166 
L 318.221899 45.752871 
L 318.317054 45.571102 
L 318.328949 45.571102 
L 318.554942 45.480218 
L 318.661992 45.389333 
L 318.769042 45.328744 
L 318.769042 45.298449 
L 318.864197 45.207564 
L 318.876091 45.207564 
L 319.209134 45.11668 
L 319.221029 45.05609 
L 319.316184 45.05609 
L 319.435128 44.965206 
L 319.4946 44.783437 
L 319.542178 44.783437 
L 319.68491 44.722847 
L 319.68491 44.692553 
L 319.79196 44.601668 
L 319.89901 44.510784 
L 319.970376 44.207836 
L 320.006059 44.207836 
L 320.08932 44.116951 
L 320.19637 43.814003 
L 320.38668 43.723119 
L 320.422363 43.662529 
L 320.49373 43.662529 
L 320.68404 43.571645 
L 320.79109 43.359581 
L 320.898139 43.268696 
L 321.005189 43.086928 
L 321.076555 42.996043 
L 321.076555 42.965748 
L 321.183605 42.965748 
L 321.362021 42.874864 
L 321.409598 42.814274 
L 321.46907 42.814274 
L 321.552331 42.72339 
L 321.659381 42.571916 
L 321.730747 42.481031 
L 321.825902 42.359852 
L 321.837797 42.359852 
L 322.158946 42.268968 
L 322.182734 42.208378 
L 322.265995 42.208378 
L 322.444411 42.117494 
L 322.551461 41.90543 
L 322.825032 41.814546 
L 322.848821 41.753956 
L 322.932082 41.753956 
L 323.241336 41.663072 
L 323.300808 41.511597 
L 323.348386 41.511597 
L 323.431646 41.451008 
L 323.431646 41.420713 
L 323.491118 41.14806 
L 323.538696 41.14806 
L 323.574379 41.117765 
L 323.574379 41.057175 
L 323.669534 40.935996 
L 323.681429 40.935996 
L 323.859845 40.845112 
L 323.907422 40.663343 
L 323.966894 40.663343 
L 324.06205 40.602753 
L 324.06205 40.572458 
L 324.109627 40.481574 
L 324.169099 40.481574 
L 324.323726 40.39069 
L 324.323726 40.360395 
L 324.430776 40.360395 
L 324.65677 40.26951 
L 324.763819 39.996857 
L 324.84708 39.905973 
L 324.858974 39.784793 
L 324.95413 39.784793 
L 325.061179 39.724204 
L 325.061179 39.693909 
L 325.14444 39.390961 
L 325.168229 39.390961 
L 325.215806 39.300076 
L 325.310962 39.148602 
L 325.322856 39.148602 
L 325.429906 39.057718 
L 325.536955 38.845654 
L 325.655899 38.75477 
L 325.715371 38.603296 
L 325.762949 38.603296 
L 325.869998 38.542706 
L 325.869998 38.512411 
L 325.92947 38.391232 
L 325.977048 38.391232 
L 326.107886 38.330642 
L 326.107886 38.300348 
L 326.191147 38.179168 
L 326.214936 38.179168 
L 326.321986 38.088284 
L 326.345774 38.027694 
L 326.429035 38.027694 
L 326.476613 37.9974 
L 326.476613 37.93681 
L 326.583662 37.815631 
L 326.607451 37.724746 
L 326.643134 37.603567 
L 326.714501 37.603567 
L 326.82155 37.512683 
L 326.845339 37.421798 
L 326.9286 37.421798 
L 327.130805 37.330914 
L 327.22596 37.17944 
L 327.237854 37.17944 
L 327.285432 37.088555 
L 327.368693 36.997671 
L 327.392482 36.997671 
L 327.511426 36.906786 
L 327.606581 36.664428 
L 327.618475 36.664428 
L 327.784997 36.573544 
L 327.892046 36.452364 
L 327.903941 36.452364 
L 327.903941 36.36148 
L 327.975307 36.179711 
L 328.01099 36.179711 
L 328.189406 36.088827 
L 328.201301 35.967647 
L 328.296456 35.967647 
L 328.439189 35.876763 
L 328.510555 35.694994 
L 328.546238 35.694994 
L 328.81981 35.60411 
L 328.926859 35.361751 
L 329.152853 35.270867 
L 329.224219 34.937624 
L 329.259902 34.937624 
L 329.426424 34.877034 
L 329.426424 34.846739 
L 329.533474 34.664971 
L 329.771362 34.574086 
L 329.878411 34.422612 
L 330.068722 34.331728 
L 330.104405 34.210548 
L 330.175771 34.210548 
L 330.377976 34.119664 
L 330.461237 33.937895 
L 330.485026 33.937895 
L 330.580181 33.847011 
L 330.651547 33.756126 
L 330.68723 33.756126 
L 330.818069 33.665242 
L 330.877541 33.544063 
L 330.925118 33.544063 
L 331.044062 33.453178 
L 331.139218 33.301704 
L 331.151112 33.301704 
L 331.49605 33.21082 
L 331.555522 33.08964 
L 331.603099 33.08964 
L 331.650677 32.998756 
L 331.757726 32.907872 
L 331.864776 32.847282 
L 331.864776 32.816987 
L 331.924248 32.635218 
L 331.971826 32.635218 
L 332.09077 32.544334 
L 332.17403 32.39286 
L 332.197819 32.39286 
L 332.352446 32.301975 
L 332.435707 32.150501 
L 332.459496 32.150501 
L 332.602229 32.089912 
L 332.602229 32.059617 
L 332.637912 31.968732 
L 332.709278 31.968732 
L 332.76875 31.877848 
L 332.863906 31.726374 
L 332.8758 31.726374 
L 333.054216 31.665784 
L 333.054216 31.63549 
L 333.149371 31.453721 
L 333.161266 31.453721 
L 333.244526 31.362836 
L 333.339682 31.241657 
L 333.351576 31.241657 
L 333.399154 31.150773 
L 333.422942 31.029593 
L 333.506203 31.029593 
L 333.601358 30.938709 
L 333.696514 30.847824 
L 333.708408 30.847824 
L 333.732197 30.847824 
L 333.732197 30.75694 
L 333.732197 30.726645 
L 333.839246 30.726645 
L 334.029557 30.635761 
L 334.112818 30.393402 
L 334.136606 30.393402 
L 334.481544 30.302518 
L 334.588594 30.181339 
L 334.814587 30.120749 
L 334.814587 30.090454 
L 334.921637 29.969275 
L 334.981109 29.878391 
L 335.06437 29.696622 
L 335.088158 29.696622 
L 335.135736 29.636032 
L 335.135736 29.605737 
L 335.195208 29.484558 
L 335.242786 29.484558 
L 335.36173 29.393674 
L 335.409307 29.272494 
L 335.468779 29.272494 
L 335.599618 29.211905 
L 335.599618 29.18161 
L 335.694773 28.999841 
L 335.706667 28.999841 
L 335.789928 28.908957 
L 335.861294 28.787777 
L 335.896978 28.787777 
L 336.027816 28.696893 
L 336.134866 28.515124 
L 336.230021 28.42424 
L 336.301387 28.151586 
L 336.33707 28.151586 
L 336.420331 28.060702 
L 336.527381 27.848638 
L 336.753374 27.757754 
L 336.789058 27.454806 
L 336.860424 27.454806 
L 336.93179 27.363921 
L 337.015051 27.182153 
L 337.03884 27.182153 
L 337.22915 27.091268 
L 337.324306 27.000384 
L 337.3362 27.000384 
L 337.419461 26.939794 
L 337.419461 26.909499 
L 337.490827 26.545962 
L 337.52651 26.545962 
L 337.574088 26.515667 
L 337.574088 26.455077 
L 337.681138 26.273308 
L 337.776293 26.182424 
L 337.883342 26.091539 
L 338.002286 26.000655 
L 338.109336 25.849181 
L 338.12123 25.849181 
L 338.12123 25.758296 
L 338.22828 25.455348 
L 338.263963 25.425054 
L 338.263963 25.364464 
L 338.359118 25.243285 
L 338.371013 25.243285 
L 338.442379 25.1524 
L 338.52564 25.091811 
L 338.549429 25.091811 
L 338.680267 25.061516 
L 338.680267 25.000926 
L 338.727845 24.849452 
L 338.787317 24.849452 
L 338.918155 24.758568 
L 339.025205 24.607094 
L 339.22741 24.516209 
L 339.298776 24.425325 
L 339.334459 24.425325 
L 339.548558 24.33444 
L 339.631819 24.031492 
L 339.655608 24.031492 
L 339.82213 23.970903 
L 339.82213 23.940608 
L 339.845918 23.728544 
L 339.929179 23.728544 
L 340.11949 23.63766 
L 340.190856 23.486186 
L 340.226539 23.486186 
L 340.333589 23.395301 
L 340.393061 23.152943 
L 340.440638 23.152943 
L 340.571477 23.062058 
L 340.666632 22.668226 
L 340.678526 22.668226 
L 340.856942 22.577341 
L 340.928309 22.425867 
L 340.963992 22.425867 
L 341.106725 22.334983 
L 341.106725 22.304688 
L 341.213774 22.304688 
L 341.285141 22.213804 
L 341.39219 22.092624 
L 341.475451 22.00174 
L 341.582501 21.759382 
L 341.677656 21.668497 
L 341.760917 21.517023 
L 341.784706 21.517023 
L 341.939333 21.426139 
L 342.034488 21.214075 
L 342.046382 21.214075 
L 342.20101 21.123191 
L 342.28427 21.032306 
L 342.308059 21.032306 
L 342.450792 20.941422 
L 342.450792 20.850537 
L 342.557842 20.850537 
L 342.629208 20.820242 
L 342.629208 20.759653 
L 342.68868 20.547589 
L 342.736258 20.547589 
L 342.914674 20.487 
L 342.914674 20.456705 
L 342.997934 20.335526 
L 343.021723 20.335526 
L 343.188245 20.244641 
L 343.295294 20.062872 
L 343.438027 19.971988 
L 343.545077 19.66904 
L 343.759176 19.60845 
L 343.759176 19.578155 
L 343.759176 19.54786 
L 343.866226 19.54786 
L 343.973275 19.487271 
L 343.973275 19.456976 
L 344.080325 19.123733 
L 344.17548 19.063144 
L 344.17548 19.032849 
L 344.28253 18.820785 
L 344.36579 18.729901 
L 344.460946 18.517837 
L 344.47284 18.517837 
L 344.639362 18.426953 
L 344.722622 18.366363 
L 344.746411 18.366363 
L 344.805883 18.305773 
L 344.805883 18.275478 
L 344.912933 18.03312 
L 345.079454 17.942236 
L 345.17461 17.760467 
L 345.186504 17.760467 
L 345.293554 17.669582 
L 345.388709 17.487813 
L 345.400603 17.487813 
L 345.567125 17.396929 
L 345.674174 17.245455 
L 345.900168 17.154571 
L 345.983429 17.003096 
L 346.007218 17.003096 
L 346.06669 16.912212 
L 346.161845 16.609264 
L 346.173739 16.609264 
L 346.233211 16.518379 
L 346.280789 16.3972 
L 346.340261 16.3972 
L 346.423522 16.336611 
L 346.423522 16.306316 
L 346.518677 15.942778 
L 346.530571 15.942778 
L 346.708987 15.882188 
L 346.708987 15.851894 
L 346.780354 15.761009 
L 346.816037 15.761009 
L 346.934981 15.670125 
L 347.006347 15.57924 
L 347.04203 15.57924 
L 347.172869 15.488356 
L 347.244235 15.397472 
L 347.279918 15.397472 
L 347.422651 15.306587 
L 347.529701 15.155113 
L 347.589173 15.064229 
L 347.648645 14.973344 
L 347.696222 14.973344 
L 347.7438 14.943049 
L 347.7438 14.88246 
L 347.85085 14.670396 
L 348.04116 14.609806 
L 348.04116 14.579512 
L 348.04116 14.549217 
L 348.14821 14.549217 
L 348.243365 14.458332 
L 348.290942 14.306858 
L 348.350414 14.306858 
L 348.397992 14.246269 
L 348.397992 14.215974 
L 348.469358 14.12509 
L 348.505042 14.12509 
L 348.623986 14.034205 
L 348.695352 13.852436 
L 348.731035 13.852436 
L 348.885662 13.761552 
L 348.968923 13.670667 
L 348.992712 13.670667 
L 349.301966 13.579783 
L 349.409016 13.458604 
L 349.504171 13.398014 
L 349.504171 13.367719 
L 349.516066 13.30713 
L 349.611221 13.30713 
L 349.753954 13.216245 
L 349.801531 13.155656 
L 349.861003 13.155656 
L 349.956158 13.125361 
L 349.956158 13.064771 
L 350.003736 13.004182 
L 350.063208 13.004182 
L 350.158363 12.913297 
L 350.253518 12.822413 
L 350.265413 12.822413 
L 350.455723 12.731528 
L 350.550878 12.640644 
L 350.562773 12.640644 
L 350.895816 12.549759 
L 350.895816 12.519465 
L 351.002866 12.519465 
L 353.405534 12.458875 
L 353.405534 12.458875 
" clip-path="url(#p52ae14489a)" style="fill: none; stroke: #9b6a6a; stroke-width: 1.2; stroke-linecap: square"/>
   </g>
   <g id="patch_3">
    <path d="M 174.989534 143.786875 
L 174.989534 12.458875 
" style="fill: none; stroke: #111827; stroke-width: 0.6; stroke-linejoin: miter; stroke-linecap: square"/>
   </g>
   <g id="patch_4">
    <path d="M 174.989534 143.786875 
L 353.405534 143.786875 
" style="fill: none; stroke: #111827; stroke-width: 0.6; stroke-linejoin: miter; stroke-linecap: square"/>
   </g>
   <g id="text_15">
    <text style="fill: #111827; font: 700 10.5px 'Arial', 'Helvetica', 'Liberation Sans', 'DejaVu Sans', sans-serif; text-anchor: start" x="167.852894" y="14.721458" transform="rotate(-0 167.852894 14.721458)">b</text>
   </g>
   <g id="text_16">
    <text style="fill: #9b6a6a; font: 700 10px 'Arial', 'Helvetica', 'Liberation Sans', 'DejaVu Sans', sans-serif; text-anchor: start" x="278.470814" y="120.147835" transform="rotate(-0 278.470814 120.147835)">AUC = 0.480</text>
   </g>
   <g id="text_17">
    <text style="fill: #5f6673; font: 7px 'Arial', 'Helvetica', 'Liberation Sans', 'DejaVu Sans', sans-serif; text-anchor: start" x="278.470814" y="130.654075" transform="rotate(-0 278.470814 130.654075)">classifier failed</text>
   </g>
   <g id="text_18">
    <text style="fill: #111827; font: 700 8.8px 'Arial', 'Helvetica', 'Liberation Sans', 'DejaVu Sans', sans-serif; text-anchor: start" x="174.989534" y="8.458875" transform="rotate(-0 174.989534 8.458875)">ROC anchor: random-level scalar discrimination</text>
   </g>
  </g>
  <g id="axes_2">
   <g id="patch_5">
    <path d="M 32.256734 120.804475 
L 149.501534 120.804475 
L 149.501534 12.458875 
L 32.256734 12.458875 
z
" style="fill: #ffffff"/>
   </g>
   <g id="matplotlib.axis_3">
    <g id="xtick_7">
     <g id="line2d_27">
      <g>
       <use xlink:href="#mbe5a8c0196" x="64.419706" y="120.804475" style="fill: #5f6673; stroke: #5f6673; stroke-width: 0.5"/>
      </g>
     </g>
     <g id="text_19">
      <text style="fill: #5f6673; font: 7.5px 'Arial', 'Helvetica', 'Liberation Sans', 'DejaVu Sans', sans-serif; text-anchor: middle" x="64.419706" y="133.172834" transform="rotate(-0 64.419706 133.172834)">−2</text>
     </g>
    </g>
    <g id="xtick_8">
     <g id="line2d_28">
      <g>
       <use xlink:href="#mbe5a8c0196" x="96.794808" y="120.804475" style="fill: #5f6673; stroke: #5f6673; stroke-width: 0.5"/>
      </g>
     </g>
     <g id="text_20">
      <text style="fill: #5f6673; font: 7.5px 'Arial', 'Helvetica', 'Liberation Sans', 'DejaVu Sans', sans-serif; text-anchor: middle" x="96.794808" y="133.172834" transform="rotate(-0 96.794808 133.172834)">0</text>
     </g>
    </g>
    <g id="xtick_9">
     <g id="line2d_29">
      <g>
       <use xlink:href="#mbe5a8c0196" x="129.169911" y="120.804475" style="fill: #5f6673; stroke: #5f6673; stroke-width: 0.5"/>
      </g>
     </g>
     <g id="text_21">
      <text style="fill: #5f6673; font: 7.5px 'Arial', 'Helvetica', 'Liberation Sans', 'DejaVu Sans', sans-serif; text-anchor: middle" x="129.169911" y="133.172834" transform="rotate(-0 129.169911 133.172834)">2</text>
     </g>
    </g>
    <g id="text_22">
     <text style="fill: #111827; font: 7.2px 'Arial', 'Helvetica', 'Liberation Sans', 'DejaVu Sans', sans-serif; text-anchor: middle" x="90.879134" y="143.817084" transform="rotate(-0 90.879134 143.817084)">Phi</text>
    </g>
   </g>
   <g id="matplotlib.axis_4">
    <g id="ytick_7">
     <g id="line2d_30">
      <g>
       <use xlink:href="#m0511210aeb" x="32.256734" y="115.879675" style="fill: #5f6673; stroke: #5f6673; stroke-width: 0.5"/>
      </g>
     </g>
     <g id="text_23">
      <text style="fill: #5f6673; font: 7.5px 'Arial', 'Helvetica', 'Liberation Sans', 'DejaVu Sans', sans-serif; text-anchor: end" x="25.256734" y="118.563855" transform="rotate(-0 25.256734 118.563855)">0.0</text>
     </g>
    </g>
    <g id="ytick_8">
     <g id="line2d_31">
      <g>
       <use xlink:href="#m0511210aeb" x="32.256734" y="99.027204" style="fill: #5f6673; stroke: #5f6673; stroke-width: 0.5"/>
      </g>
     </g>
     <g id="text_24">
      <text style="fill: #5f6673; font: 7.5px 'Arial', 'Helvetica', 'Liberation Sans', 'DejaVu Sans', sans-serif; text-anchor: end" x="25.256734" y="101.711384" transform="rotate(-0 25.256734 101.711384)">0.2</text>
     </g>
    </g>
    <g id="ytick_9">
     <g id="line2d_32">
      <g>
       <use xlink:href="#m0511210aeb" x="32.256734" y="82.174733" style="fill: #5f6673; stroke: #5f6673; stroke-width: 0.5"/>
      </g>
     </g>
     <g id="text_25">
      <text style="fill: #5f6673; font: 7.5px 'Arial', 'Helvetica', 'Liberation Sans', 'DejaVu Sans', sans-serif; text-anchor: end" x="25.256734" y="84.858912" transform="rotate(-0 25.256734 84.858912)">0.4</text>
     </g>
    </g>
    <g id="ytick_10">
     <g id="line2d_33">
      <g>
       <use xlink:href="#m0511210aeb" x="32.256734" y="65.322262" style="fill: #5f6673; stroke: #5f6673; stroke-width: 0.5"/>
      </g>
     </g>
     <g id="text_26">
      <text style="fill: #5f6673; font: 7.5px 'Arial', 'Helvetica', 'Liberation Sans', 'DejaVu Sans', sans-serif; text-anchor: end" x="25.256734" y="68.006441" transform="rotate(-0 25.256734 68.006441)">0.6</text>
     </g>
    </g>
    <g id="ytick_11">
     <g id="line2d_34">
      <g>
       <use xlink:href="#m0511210aeb" x="32.256734" y="48.46979" style="fill: #5f6673; stroke: #5f6673; stroke-width: 0.5"/>
      </g>
     </g>
     <g id="text_27">
      <text style="fill: #5f6673; font: 7.5px 'Arial', 'Helvetica', 'Liberation Sans', 'DejaVu Sans', sans-serif; text-anchor: end" x="25.256734" y="51.15397" transform="rotate(-0 25.256734 51.15397)">0.8</text>
     </g>
    </g>
    <g id="ytick_12">
     <g id="line2d_35">
      <g>
       <use xlink:href="#m0511210aeb" x="32.256734" y="31.617319" style="fill: #5f6673; stroke: #5f6673; stroke-width: 0.5"/>
      </g>
     </g>
     <g id="text_28">
      <text style="fill: #5f6673; font: 7.5px 'Arial', 'Helvetica', 'Liberation Sans', 'DejaVu Sans', sans-serif; text-anchor: end" x="25.256734" y="34.301499" transform="rotate(-0 25.256734 34.301499)">1.0</text>
     </g>
    </g>
    <g id="ytick_13">
     <g id="line2d_36">
      <g>
       <use xlink:href="#m0511210aeb" x="32.256734" y="14.764848" style="fill: #5f6673; stroke: #5f6673; stroke-width: 0.5"/>
      </g>
     </g>
     <g id="text_29">
      <text style="fill: #5f6673; font: 7.5px 'Arial', 'Helvetica', 'Liberation Sans', 'DejaVu Sans', sans-serif; text-anchor: end" x="25.256734" y="17.449028" transform="rotate(-0 25.256734 17.449028)">1.2</text>
     </g>
    </g>
    <g id="text_30">
     <text style="fill: #111827; font: 7.2px 'Arial', 'Helvetica', 'Liberation Sans', 'DejaVu Sans', sans-serif; text-anchor: middle" x="9.316359" y="66.631675" transform="rotate(-90 9.316359 66.631675)">density</text>
    </g>
   </g>
   <g id="line2d_37">
    <path d="M 37.586043 115.292094 
L 39.153487 115.292094 
L 40.720931 115.40961 
L 42.288375 115.233336 
L 43.855819 115.292094 
L 45.423263 115.057062 
L 46.990707 115.057062 
L 48.55815 115.057062 
L 50.125594 115.057062 
L 51.693038 114.645755 
L 53.260482 114.704513 
L 54.827926 114.704513 
L 56.39537 114.293206 
L 57.962814 114.116932 
L 59.530257 114.469481 
L 61.097701 113.823142 
L 62.665145 114.116932 
L 64.232589 113.235561 
L 65.800033 112.295431 
L 67.367477 112.295431 
L 68.93492 111.825366 
L 70.502364 111.179027 
L 72.069808 110.415172 
L 73.637252 108.476155 
L 75.204696 107.183477 
L 76.77214 104.833153 
L 78.339584 103.834266 
L 79.907027 101.777732 
L 81.474471 97.077085 
L 83.041915 95.314342 
L 84.609359 90.554936 
L 86.176803 86.500628 
L 87.744247 85.619256 
L 89.311691 80.331028 
L 90.879134 79.625931 
L 92.446578 76.041687 
L 94.014022 75.33659 
L 95.581466 75.924171 
L 97.14891 75.924171 
L 98.716354 75.160316 
L 100.283797 71.399798 
L 101.851241 78.274495 
L 103.418685 79.743447 
L 104.986129 79.33214 
L 106.553573 81.917496 
L 108.121017 87.558273 
L 109.688461 90.672452 
L 111.255904 94.785519 
L 112.823348 96.90081 
L 114.390792 100.896361 
L 115.958236 101.954007 
L 117.52568 105.773283 
L 119.093124 106.713412 
L 120.660568 107.477267 
L 122.228011 110.356414 
L 123.795455 110.062624 
L 125.362899 111.296544 
L 126.930343 112.001641 
L 128.497787 112.060399 
L 130.065231 113.235561 
L 131.632674 113.8819 
L 133.200118 113.8819 
L 134.767562 114.234448 
L 136.335006 114.234448 
L 137.90245 114.939545 
L 139.469894 114.880787 
L 141.037338 115.174578 
L 142.604781 115.11582 
L 144.172225 114.351965 
" clip-path="url(#p1e5b1fb426)" style="fill: none; stroke: #6f8798; stroke-linecap: square"/>
   </g>
   <g id="line2d_38">
    <path d="M 37.586043 115.879675 
L 39.153487 115.879675 
L 40.720931 115.879675 
L 42.288375 115.879675 
L 43.855819 115.879675 
L 45.423263 115.879675 
L 46.990707 115.879675 
L 48.55815 115.477081 
L 50.125594 115.879675 
L 51.693038 115.275784 
L 53.260482 115.074487 
L 54.827926 114.873189 
L 56.39537 114.068001 
L 57.962814 114.873189 
L 59.530257 114.068001 
L 61.097701 114.068001 
L 62.665145 114.068001 
L 64.232589 112.256327 
L 65.800033 110.64595 
L 67.367477 112.05503 
L 68.93492 107.626494 
L 70.502364 108.431682 
L 72.069808 107.626494 
L 73.637252 105.81482 
L 75.204696 101.587581 
L 76.77214 100.581095 
L 78.339584 93.133102 
L 79.907027 97.762936 
L 81.474471 91.92532 
L 83.041915 86.490298 
L 84.609359 83.470841 
L 86.176803 73.80858 
L 87.744247 83.269544 
L 89.311691 79.243602 
L 90.879134 87.094189 
L 92.446578 84.678624 
L 94.014022 86.087704 
L 95.581466 81.45787 
L 97.14891 80.451385 
L 98.716354 80.451385 
L 100.283797 84.27603 
L 101.851241 85.886407 
L 103.418685 86.892892 
L 104.986129 90.918834 
L 106.553573 92.931805 
L 108.121017 93.334399 
L 109.688461 94.340885 
L 111.255904 94.743479 
L 112.823348 99.373313 
L 114.390792 99.172015 
L 115.958236 102.594066 
L 117.52568 100.581095 
L 119.093124 103.399255 
L 120.660568 106.821305 
L 122.228011 103.600552 
L 123.795455 109.438168 
L 125.362899 107.827791 
L 126.930343 109.639465 
L 128.497787 110.243356 
L 130.065231 109.438168 
L 131.632674 111.451139 
L 133.200118 113.665407 
L 134.767562 114.470595 
L 136.335006 114.068001 
L 137.90245 112.658921 
L 139.469894 114.068001 
L 141.037338 114.873189 
L 142.604781 114.671892 
L 144.172225 115.275784 
" clip-path="url(#p1e5b1fb426)" style="fill: none; stroke: #3e8f63; stroke-linecap: square"/>
   </g>
   <g id="line2d_39">
    <path d="M 37.586043 115.879675 
L 39.153487 115.879675 
L 40.720931 115.879675 
L 42.288375 115.879675 
L 43.855819 115.879675 
L 45.423263 115.879675 
L 46.990707 115.879675 
L 48.55815 115.879675 
L 50.125594 115.879675 
L 51.693038 115.879675 
L 53.260482 115.879675 
L 54.827926 115.879675 
L 56.39537 115.879675 
L 57.962814 114.923403 
L 59.530257 115.879675 
L 61.097701 115.879675 
L 62.665145 113.010859 
L 64.232589 114.923403 
L 65.800033 114.923403 
L 67.367477 113.010859 
L 68.93492 113.010859 
L 70.502364 112.054588 
L 72.069808 112.054588 
L 73.637252 113.967131 
L 75.204696 107.273228 
L 76.77214 108.2295 
L 78.339584 104.404413 
L 79.907027 101.535597 
L 81.474471 96.754238 
L 83.041915 94.841694 
L 84.609359 93.885423 
L 86.176803 86.235248 
L 87.744247 17.383675 
L 89.311691 29.815209 
L 90.879134 47.984374 
L 92.446578 81.453889 
L 94.014022 81.453889 
L 95.581466 72.847442 
L 97.14891 84.322704 
L 98.716354 87.19152 
L 100.283797 92.929151 
L 101.851241 104.404413 
L 103.418685 84.322704 
L 104.986129 89.104063 
L 106.553573 93.885423 
L 108.121017 102.491869 
L 109.688461 101.535597 
L 111.255904 99.623054 
L 112.823348 96.754238 
L 114.390792 96.754238 
L 115.958236 105.360685 
L 117.52568 98.666782 
L 119.093124 104.404413 
L 120.660568 107.273228 
L 122.228011 112.054588 
L 123.795455 111.098316 
L 125.362899 110.142044 
L 126.930343 107.273228 
L 128.497787 113.010859 
L 130.065231 111.098316 
L 131.632674 110.142044 
L 133.200118 115.879675 
L 134.767562 113.967131 
L 136.335006 113.967131 
L 137.90245 113.967131 
L 139.469894 114.923403 
L 141.037338 115.879675 
L 142.604781 113.967131 
L 144.172225 114.923403 
" clip-path="url(#p1e5b1fb426)" style="fill: none; stroke: #7a65a8; stroke-linecap: square"/>
   </g>
   <g id="patch_6">
    <path d="M 32.256734 120.804475 
L 32.256734 12.458875 
" style="fill: none; stroke: #111827; stroke-width: 0.6; stroke-linejoin: miter; stroke-linecap: square"/>
   </g>
   <g id="patch_7">
    <path d="M 32.256734 120.804475 
L 149.501534 120.804475 
" style="fill: none; stroke: #111827; stroke-width: 0.6; stroke-linejoin: miter; stroke-linecap: square"/>
   </g>
   <g id="text_31">
    <text style="fill: #111827; font: 700 10.5px 'Arial', 'Helvetica', 'Liberation Sans', 'DejaVu Sans', sans-serif; text-anchor: start" x="27.566942" y="15.640754" transform="rotate(-0 27.566942 15.640754)">a</text>
   </g>
   <g id="text_32">
    <text style="fill: #111827; font: 700 8.8px 'Arial', 'Helvetica', 'Liberation Sans', 'DejaVu Sans', sans-serif; text-anchor: start" x="32.256734" y="8.458875" transform="rotate(-0 32.256734 8.458875)">Empirical Phi distributions</text>
   </g>
   <g id="legend_1">
    <g id="line2d_40">
     <path d="M 71.268456 19.926984 
L 77.168456 19.926984 
L 83.068456 19.926984 
" style="fill: none; stroke: #6f8798; stroke-linecap: square"/>
    </g>
    <g id="text_33">
     <text style="font: 5.9px 'Arial', 'Helvetica', 'Liberation Sans', 'DejaVu Sans', sans-serif; text-anchor: start" x="87.788456" y="21.991984" transform="rotate(-0 87.788456 21.991984)">mammalian repair</text>
    </g>
    <g id="line2d_41">
     <path d="M 71.268456 28.272719 
L 77.168456 28.272719 
L 83.068456 28.272719 
" style="fill: none; stroke: #3e8f63; stroke-linecap: square"/>
    </g>
    <g id="text_34">
     <text style="font: 5.9px 'Arial', 'Helvetica', 'Liberation Sans', 'DejaVu Sans', sans-serif; text-anchor: start" x="87.788456" y="30.337719" transform="rotate(-0 87.788456 30.337719)">salamander blastema</text>
    </g>
    <g id="line2d_42">
     <path d="M 71.268456 36.618453 
L 77.168456 36.618453 
L 83.068456 36.618453 
" style="fill: none; stroke: #7a65a8; stroke-linecap: square"/>
    </g>
    <g id="text_35">
     <text style="font: 5.9px 'Arial', 'Helvetica', 'Liberation Sans', 'DejaVu Sans', sans-serif; text-anchor: start" x="87.788456" y="38.683453" transform="rotate(-0 87.788456 38.683453)">salamander intact</text>
    </g>
   </g>
  </g>
  <g id="axes_3">
   <g id="patch_8">
    <path d="M 32.256734 248.849275 
L 185.184734 248.849275 
L 185.184734 166.769275 
L 32.256734 166.769275 
z
" style="fill: #ffffff"/>
   </g>
   <g id="patch_9">
    <path d="M 39.208007 248.849275 
L 39.208007 248.471026 
L 41.735743 248.471026 
L 41.735743 248.723192 
L 44.263478 248.723192 
L 44.263478 248.471026 
L 46.791214 248.471026 
L 46.791214 248.344943 
L 49.318949 248.344943 
L 49.318949 247.462363 
L 51.846685 247.462363 
L 51.846685 246.831948 
L 54.37442 246.831948 
L 54.37442 245.823284 
L 56.902156 245.823284 
L 56.902156 244.058123 
L 59.429891 244.058123 
L 59.429891 243.553791 
L 61.957627 243.553791 
L 61.957627 240.023469 
L 64.485362 240.023469 
L 64.485362 237.50181 
L 67.013098 237.50181 
L 67.013098 235.610565 
L 69.540834 235.610565 
L 69.540834 232.206326 
L 72.068569 232.206326 
L 72.068569 227.036925 
L 74.596305 227.036925 
L 74.596305 221.867524 
L 77.12404 221.867524 
L 77.12404 213.1678 
L 79.651776 213.1678 
L 79.651776 211.780888 
L 82.179511 211.780888 
L 82.179511 206.233238 
L 84.707247 206.233238 
L 84.707247 200.559505 
L 87.234982 200.559505 
L 87.234982 194.633607 
L 89.762718 194.633607 
L 89.762718 188.581625 
L 92.290453 188.581625 
L 92.290453 184.042639 
L 94.818189 184.042639 
L 94.818189 177.486326 
L 97.345924 177.486326 
L 97.345924 175.468999 
L 99.87366 175.468999 
L 99.87366 170.677846 
L 102.401396 170.677846 
L 102.401396 175.342916 
L 104.929131 175.342916 
L 104.929131 182.403561 
L 107.456867 182.403561 
L 107.456867 189.464206 
L 109.984602 189.464206 
L 109.984602 186.438215 
L 112.512338 186.438215 
L 112.512338 194.633607 
L 115.040073 194.633607 
L 115.040073 200.559505 
L 117.567809 200.559505 
L 117.567809 204.089828 
L 120.095544 204.089828 
L 120.095544 208.754897 
L 122.62328 208.754897 
L 122.62328 220.354528 
L 125.151015 220.354528 
L 125.151015 226.280427 
L 127.678751 226.280427 
L 127.678751 229.180335 
L 130.206486 229.180335 
L 130.206486 234.601902 
L 132.734222 234.601902 
L 132.734222 237.627893 
L 135.261958 237.627893 
L 135.261958 239.897386 
L 137.789693 239.897386 
L 137.789693 241.662547 
L 140.317429 241.662547 
L 140.317429 243.427708 
L 142.845164 243.427708 
L 142.845164 244.562455 
L 145.3729 244.562455 
L 145.3729 246.831948 
L 147.900635 246.831948 
L 147.900635 247.210197 
L 150.428371 247.210197 
L 150.428371 247.714528 
L 152.956106 247.714528 
L 152.956106 247.840611 
L 155.483842 247.840611 
L 155.483842 248.471026 
L 158.011577 248.471026 
L 158.011577 248.723192 
L 160.539313 248.723192 
L 160.539313 248.723192 
L 163.067048 248.723192 
L 163.067048 248.597109 
L 165.594784 248.597109 
L 165.594784 248.723192 
L 168.122519 248.723192 
L 168.122519 248.849275 
L 170.650255 248.849275 
L 170.650255 248.723192 
L 173.177991 248.723192 
L 173.177991 248.849275 
L 175.705726 248.849275 
L 175.705726 248.723192 
L 178.233462 248.723192 
L 178.233462 248.849275 
L 175.705726 248.849275 
L 175.705726 248.849275 
L 173.177991 248.849275 
L 173.177991 248.849275 
L 170.650255 248.849275 
L 170.650255 248.849275 
L 168.122519 248.849275 
L 168.122519 248.849275 
L 165.594784 248.849275 
L 165.594784 248.849275 
L 163.067048 248.849275 
L 163.067048 248.849275 
L 160.539313 248.849275 
L 160.539313 248.849275 
L 158.011577 248.849275 
L 158.011577 248.849275 
L 155.483842 248.849275 
L 155.483842 248.849275 
L 152.956106 248.849275 
L 152.956106 248.849275 
L 150.428371 248.849275 
L 150.428371 248.849275 
L 147.900635 248.849275 
L 147.900635 248.849275 
L 145.3729 248.849275 
L 145.3729 248.849275 
L 142.845164 248.849275 
L 142.845164 248.849275 
L 140.317429 248.849275 
L 140.317429 248.849275 
L 137.789693 248.849275 
L 137.789693 248.849275 
L 135.261958 248.849275 
L 135.261958 248.849275 
L 132.734222 248.849275 
L 132.734222 248.849275 
L 130.206486 248.849275 
L 130.206486 248.849275 
L 127.678751 248.849275 
L 127.678751 248.849275 
L 125.151015 248.849275 
L 125.151015 248.849275 
L 122.62328 248.849275 
L 122.62328 248.849275 
L 120.095544 248.849275 
L 120.095544 248.849275 
L 117.567809 248.849275 
L 117.567809 248.849275 
L 115.040073 248.849275 
L 115.040073 248.849275 
L 112.512338 248.849275 
L 112.512338 248.849275 
L 109.984602 248.849275 
L 109.984602 248.849275 
L 107.456867 248.849275 
L 107.456867 248.849275 
L 104.929131 248.849275 
L 104.929131 248.849275 
L 102.401396 248.849275 
L 102.401396 248.849275 
L 99.87366 248.849275 
L 99.87366 248.849275 
L 97.345924 248.849275 
L 97.345924 248.849275 
L 94.818189 248.849275 
L 94.818189 248.849275 
L 92.290453 248.849275 
L 92.290453 248.849275 
L 89.762718 248.849275 
L 89.762718 248.849275 
L 87.234982 248.849275 
L 87.234982 248.849275 
L 84.707247 248.849275 
L 84.707247 248.849275 
L 82.179511 248.849275 
L 82.179511 248.849275 
L 79.651776 248.849275 
L 79.651776 248.849275 
L 77.12404 248.849275 
L 77.12404 248.849275 
L 74.596305 248.849275 
L 74.596305 248.849275 
L 72.068569 248.849275 
L 72.068569 248.849275 
L 69.540834 248.849275 
L 69.540834 248.849275 
L 67.013098 248.849275 
L 67.013098 248.849275 
L 64.485362 248.849275 
L 64.485362 248.849275 
L 61.957627 248.849275 
L 61.957627 248.849275 
L 59.429891 248.849275 
L 59.429891 248.849275 
L 56.902156 248.849275 
L 56.902156 248.849275 
L 54.37442 248.849275 
L 54.37442 248.849275 
L 51.846685 248.849275 
L 51.846685 248.849275 
L 49.318949 248.849275 
L 49.318949 248.849275 
L 46.791214 248.849275 
L 46.791214 248.849275 
L 44.263478 248.849275 
L 44.263478 248.849275 
L 41.735743 248.849275 
L 41.735743 248.849275 
z
" clip-path="url(#pa4678279c2)" style="fill: #e8eef3; stroke: #173b63; stroke-width: 0.8; stroke-linejoin: miter"/>
   </g>
   <g id="matplotlib.axis_5">
    <g id="xtick_10">
     <g id="line2d_43">
      <g>
       <use xlink:href="#mbe5a8c0196" x="49.543071" y="248.849275" style="fill: #5f6673; stroke: #5f6673; stroke-width: 0.5"/>
      </g>
     </g>
     <g id="text_36">
      <text style="fill: #5f6673; font: 7.5px 'Arial', 'Helvetica', 'Liberation Sans', 'DejaVu Sans', sans-serif; text-anchor: middle" x="49.543071" y="261.217634" transform="rotate(-0 49.543071 261.217634)">−0.050</text>
     </g>
    </g>
    <g id="xtick_11">
     <g id="line2d_44">
      <g>
       <use xlink:href="#mbe5a8c0196" x="75.143369" y="248.849275" style="fill: #5f6673; stroke: #5f6673; stroke-width: 0.5"/>
      </g>
     </g>
     <g id="text_37">
      <text style="fill: #5f6673; font: 7.5px 'Arial', 'Helvetica', 'Liberation Sans', 'DejaVu Sans', sans-serif; text-anchor: middle" x="75.143369" y="261.217634" transform="rotate(-0 75.143369 261.217634)">−0.025</text>
     </g>
    </g>
    <g id="xtick_12">
     <g id="line2d_45">
      <g>
       <use xlink:href="#mbe5a8c0196" x="100.743667" y="248.849275" style="fill: #5f6673; stroke: #5f6673; stroke-width: 0.5"/>
      </g>
     </g>
     <g id="text_38">
      <text style="fill: #5f6673; font: 7.5px 'Arial', 'Helvetica', 'Liberation Sans', 'DejaVu Sans', sans-serif; text-anchor: middle" x="100.743667" y="261.217634" transform="rotate(-0 100.743667 261.217634)">0.000</text>
     </g>
    </g>
    <g id="xtick_13">
     <g id="line2d_46">
      <g>
       <use xlink:href="#mbe5a8c0196" x="126.343966" y="248.849275" style="fill: #5f6673; stroke: #5f6673; stroke-width: 0.5"/>
      </g>
     </g>
     <g id="text_39">
      <text style="fill: #5f6673; font: 7.5px 'Arial', 'Helvetica', 'Liberation Sans', 'DejaVu Sans', sans-serif; text-anchor: middle" x="126.343966" y="261.217634" transform="rotate(-0 126.343966 261.217634)">0.025</text>
     </g>
    </g>
    <g id="xtick_14">
     <g id="line2d_47">
      <g>
       <use xlink:href="#mbe5a8c0196" x="151.944264" y="248.849275" style="fill: #5f6673; stroke: #5f6673; stroke-width: 0.5"/>
      </g>
     </g>
     <g id="text_40">
      <text style="fill: #5f6673; font: 7.5px 'Arial', 'Helvetica', 'Liberation Sans', 'DejaVu Sans', sans-serif; text-anchor: middle" x="151.944264" y="261.217634" transform="rotate(-0 151.944264 261.217634)">0.050</text>
     </g>
    </g>
    <g id="xtick_15">
     <g id="line2d_48">
      <g>
       <use xlink:href="#mbe5a8c0196" x="177.544562" y="248.849275" style="fill: #5f6673; stroke: #5f6673; stroke-width: 0.5"/>
      </g>
     </g>
     <g id="text_41">
      <text style="fill: #5f6673; font: 7.5px 'Arial', 'Helvetica', 'Liberation Sans', 'DejaVu Sans', sans-serif; text-anchor: middle" x="177.544562" y="261.217634" transform="rotate(-0 177.544562 261.217634)">0.075</text>
     </g>
    </g>
    <g id="text_42">
     <text style="fill: #111827; font: 7.2px 'Arial', 'Helvetica', 'Liberation Sans', 'DejaVu Sans', sans-serif; text-anchor: middle" x="108.720734" y="271.861884" transform="rotate(-0 108.720734 271.861884)">mean difference under label shuffle</text>
    </g>
   </g>
   <g id="matplotlib.axis_6">
    <g id="ytick_14">
     <g id="line2d_49">
      <g>
       <use xlink:href="#m0511210aeb" x="32.256734" y="248.849275" style="fill: #5f6673; stroke: #5f6673; stroke-width: 0.5"/>
      </g>
     </g>
     <g id="text_43">
      <text style="fill: #5f6673; font: 7.5px 'Arial', 'Helvetica', 'Liberation Sans', 'DejaVu Sans', sans-serif; text-anchor: end" x="25.256734" y="251.533455" transform="rotate(-0 25.256734 251.533455)">0</text>
     </g>
    </g>
    <g id="ytick_15">
     <g id="line2d_50">
      <g>
       <use xlink:href="#m0511210aeb" x="32.256734" y="223.632685" style="fill: #5f6673; stroke: #5f6673; stroke-width: 0.5"/>
      </g>
     </g>
     <g id="text_44">
      <text style="fill: #5f6673; font: 7.5px 'Arial', 'Helvetica', 'Liberation Sans', 'DejaVu Sans', sans-serif; text-anchor: end" x="25.256734" y="226.316865" transform="rotate(-0 25.256734 226.316865)">200</text>
     </g>
    </g>
    <g id="ytick_16">
     <g id="line2d_51">
      <g>
       <use xlink:href="#m0511210aeb" x="32.256734" y="198.416095" style="fill: #5f6673; stroke: #5f6673; stroke-width: 0.5"/>
      </g>
     </g>
     <g id="text_45">
      <text style="fill: #5f6673; font: 7.5px 'Arial', 'Helvetica', 'Liberation Sans', 'DejaVu Sans', sans-serif; text-anchor: end" x="25.256734" y="201.100275" transform="rotate(-0 25.256734 201.100275)">400</text>
     </g>
    </g>
    <g id="ytick_17">
     <g id="line2d_52">
      <g>
       <use xlink:href="#m0511210aeb" x="32.256734" y="173.199505" style="fill: #5f6673; stroke: #5f6673; stroke-width: 0.5"/>
      </g>
     </g>
     <g id="text_46">
      <text style="fill: #5f6673; font: 7.5px 'Arial', 'Helvetica', 'Liberation Sans', 'DejaVu Sans', sans-serif; text-anchor: end" x="25.256734" y="175.883685" transform="rotate(-0 25.256734 175.883685)">600</text>
     </g>
    </g>
    <g id="text_47">
     <text style="fill: #111827; font: 7.2px 'Arial', 'Helvetica', 'Liberation Sans', 'DejaVu Sans', sans-serif; text-anchor: middle" x="7.313625" y="207.809275" transform="rotate(-90 7.313625 207.809275)">count</text>
    </g>
   </g>
   <g id="line2d_53">
    <path d="M 91.167213 248.849275 
L 91.167213 166.769275 
" clip-path="url(#pa4678279c2)" style="fill: none; stroke: #9b6a6a; stroke-width: 1.1; stroke-linecap: square"/>
   </g>
   <g id="patch_10">
    <path d="M 32.256734 248.849275 
L 32.256734 166.769275 
" style="fill: none; stroke: #111827; stroke-width: 0.6; stroke-linejoin: miter; stroke-linecap: square"/>
   </g>
   <g id="patch_11">
    <path d="M 32.256734 248.849275 
L 185.184734 248.849275 
" style="fill: none; stroke: #111827; stroke-width: 0.6; stroke-linejoin: miter; stroke-linecap: square"/>
   </g>
   <g id="text_48">
    <text style="fill: #111827; font: 700 10.5px 'Arial', 'Helvetica', 'Liberation Sans', 'DejaVu Sans', sans-serif; text-anchor: start" x="26.139614" y="171.001778" transform="rotate(-0 26.139614 171.001778)">c</text>
   </g>
   <g id="text_49">
    <text style="fill: #9b6a6a; font: 700 7.2px 'Arial', 'Helvetica', 'Liberation Sans', 'DejaVu Sans', sans-serif" transform="translate(38.373854 181.7725)">observed = -0.009</text>
    <text style="fill: #9b6a6a; font: 700 7.2px 'Arial', 'Helvetica', 'Liberation Sans', 'DejaVu Sans', sans-serif" transform="translate(38.373854 189.403375)">p = 0.585</text>
   </g>
   <g id="text_50">
    <text style="fill: #111827; font: 700 8.8px 'Arial', 'Helvetica', 'Liberation Sans', 'DejaVu Sans', sans-serif; text-anchor: start" x="32.256734" y="162.769275" transform="rotate(-0 32.256734 162.769275)">Permutation null: mean shift unsupported</text>
   </g>
  </g>
  <g id="axes_4">
   <g id="patch_12">
    <path d="M 215.770334 248.849275 
L 343.210334 248.849275 
L 343.210334 166.769275 
L 215.770334 166.769275 
z
" style="fill: #ffffff"/>
   </g>
   <g id="matplotlib.axis_7">
    <g id="xtick_16">
     <g id="line2d_54">
      <path d="M 246.8484 248.849275 
L 246.8484 166.769275 
" clip-path="url(#pf3f94d9d30)" style="fill: none; stroke: #d8dee8; stroke-opacity: 0.8; stroke-width: 0.45; stroke-linecap: square"/>
     </g>
     <g id="line2d_55">
      <g>
       <use xlink:href="#mbe5a8c0196" x="246.8484" y="248.849275" style="fill: #5f6673; stroke: #5f6673; stroke-width: 0.5"/>
      </g>
     </g>
     <g id="text_51">
      <text style="fill: #5f6673; font: 7.5px 'Arial', 'Helvetica', 'Liberation Sans', 'DejaVu Sans', sans-serif; text-anchor: middle" x="246.8484" y="261.217634" transform="rotate(-0 246.8484 261.217634)">0.0</text>
     </g>
    </g>
    <g id="xtick_17">
     <g id="line2d_56">
      <path d="M 283.833666 248.849275 
L 283.833666 166.769275 
" clip-path="url(#pf3f94d9d30)" style="fill: none; stroke: #d8dee8; stroke-opacity: 0.8; stroke-width: 0.45; stroke-linecap: square"/>
     </g>
     <g id="line2d_57">
      <g>
       <use xlink:href="#mbe5a8c0196" x="283.833666" y="248.849275" style="fill: #5f6673; stroke: #5f6673; stroke-width: 0.5"/>
      </g>
     </g>
     <g id="text_52">
      <text style="fill: #5f6673; font: 7.5px 'Arial', 'Helvetica', 'Liberation Sans', 'DejaVu Sans', sans-serif; text-anchor: middle" x="283.833666" y="261.217634" transform="rotate(-0 283.833666 261.217634)">0.2</text>
     </g>
    </g>
    <g id="xtick_18">
     <g id="line2d_58">
      <path d="M 320.818931 248.849275 
L 320.818931 166.769275 
" clip-path="url(#pf3f94d9d30)" style="fill: none; stroke: #d8dee8; stroke-opacity: 0.8; stroke-width: 0.45; stroke-linecap: square"/>
     </g>
     <g id="line2d_59">
      <g>
       <use xlink:href="#mbe5a8c0196" x="320.818931" y="248.849275" style="fill: #5f6673; stroke: #5f6673; stroke-width: 0.5"/>
      </g>
     </g>
     <g id="text_53">
      <text style="fill: #5f6673; font: 7.5px 'Arial', 'Helvetica', 'Liberation Sans', 'DejaVu Sans', sans-serif; text-anchor: middle" x="320.818931" y="261.217634" transform="rotate(-0 320.818931 261.217634)">0.4</text>
     </g>
    </g>
    <g id="text_54">
     <text style="fill: #111827; font: 7.2px 'Arial', 'Helvetica', 'Liberation Sans', 'DejaVu Sans', sans-serif; text-anchor: middle" x="279.490334" y="271.949634" transform="rotate(-0 279.490334 271.949634)">estimate and 95% bootstrap CI</text>
    </g>
   </g>
   <g id="matplotlib.axis_8">
    <g id="ytick_18">
     <g id="line2d_60">
      <path d="M 215.770334 170.500184 
L 343.210334 170.500184 
" clip-path="url(#pf3f94d9d30)" style="fill: none; stroke: #d8dee8; stroke-opacity: 0.8; stroke-width: 0.45; stroke-linecap: square"/>
     </g>
     <g id="line2d_61">
      <g>
       <use xlink:href="#m0511210aeb" x="215.770334" y="170.500184" style="fill: #5f6673; stroke: #5f6673; stroke-width: 0.5"/>
      </g>
     </g>
     <g id="text_55">
      <text style="fill: #5f6673; font: 6.5px 'Arial', 'Helvetica', 'Liberation Sans', 'DejaVu Sans', sans-serif; text-anchor: end" x="208.770334" y="172.826473" transform="rotate(-0 208.770334 172.826473)">mean difference</text>
     </g>
    </g>
    <g id="ytick_19">
     <g id="line2d_62">
      <path d="M 215.770334 207.809275 
L 343.210334 207.809275 
" clip-path="url(#pf3f94d9d30)" style="fill: none; stroke: #d8dee8; stroke-opacity: 0.8; stroke-width: 0.45; stroke-linecap: square"/>
     </g>
     <g id="line2d_63">
      <g>
       <use xlink:href="#m0511210aeb" x="215.770334" y="207.809275" style="fill: #5f6673; stroke: #5f6673; stroke-width: 0.5"/>
      </g>
     </g>
     <g id="text_56">
      <text style="fill: #5f6673; font: 6.5px 'Arial', 'Helvetica', 'Liberation Sans', 'DejaVu Sans', sans-serif; text-anchor: end" x="208.770334" y="210.135564" transform="rotate(-0 208.770334 210.135564)">median difference</text>
     </g>
    </g>
    <g id="ytick_20">
     <g id="line2d_64">
      <path d="M 215.770334 245.118366 
L 343.210334 245.118366 
" clip-path="url(#pf3f94d9d30)" style="fill: none; stroke: #d8dee8; stroke-opacity: 0.8; stroke-width: 0.45; stroke-linecap: square"/>
     </g>
     <g id="line2d_65">
      <g>
       <use xlink:href="#m0511210aeb" x="215.770334" y="245.118366" style="fill: #5f6673; stroke: #5f6673; stroke-width: 0.5"/>
      </g>
     </g>
     <g id="text_57">
      <text style="fill: #5f6673; font: 6.5px 'Arial', 'Helvetica', 'Liberation Sans', 'DejaVu Sans', sans-serif; text-anchor: end" x="208.770334" y="247.444655" transform="rotate(-0 208.770334 247.444655)">auc</text>
     </g>
    </g>
   </g>
   <g id="line2d_66">
    <path d="M 246.8484 248.849275 
L 246.8484 166.769275 
" clip-path="url(#pf3f94d9d30)" style="fill: none; stroke: #d8dee8; stroke-width: 0.9; stroke-linecap: square"/>
   </g>
   <g id="line2d_67">
    <path d="M 238.994781 170.500184 
L 251.419322 170.500184 
" clip-path="url(#pf3f94d9d30)" style="fill: none; stroke: #9b6a6a; stroke-width: 1.1; stroke-linecap: square"/>
   </g>
   <g id="line2d_68">
    <path d="M 221.563062 207.809275 
L 237.099521 207.809275 
" clip-path="url(#pf3f94d9d30)" style="fill: none; stroke: #173b63; stroke-width: 1.1; stroke-linecap: square"/>
   </g>
   <g id="line2d_69">
    <path d="M 333.713839 245.118366 
L 337.417607 245.118366 
" clip-path="url(#pf3f94d9d30)" style="fill: none; stroke: #9b6a6a; stroke-width: 1.1; stroke-linecap: square"/>
   </g>
   <g id="patch_13">
    <path d="M 215.770334 248.849275 
L 215.770334 166.769275 
" style="fill: none; stroke: #111827; stroke-width: 0.6; stroke-linejoin: miter; stroke-linecap: square"/>
   </g>
   <g id="patch_14">
    <path d="M 215.770334 248.849275 
L 343.210334 248.849275 
" style="fill: none; stroke: #111827; stroke-width: 0.6; stroke-linejoin: miter; stroke-linecap: square"/>
   </g>
   <g id="text_58">
    <text style="fill: #111827; font: 700 10.5px 'Arial', 'Helvetica', 'Liberation Sans', 'DejaVu Sans', sans-serif; text-anchor: start" x="210.672734" y="171.001778" transform="rotate(-0 210.672734 171.001778)">d</text>
   </g>
   <g id="PathCollection_1">
    <defs>
     <path id="m83f0e73980" d="M 0 2.12132 
C 0.562581 2.12132 1.102195 1.897805 1.5 1.5 
C 1.897805 1.102195 2.12132 0.562581 2.12132 0 
C 2.12132 -0.562581 1.897805 -1.102195 1.5 -1.5 
C 1.102195 -1.897805 0.562581 -2.12132 0 -2.12132 
C -0.562581 -2.12132 -1.102195 -1.897805 -1.5 -1.5 
C -1.897805 -1.102195 -2.12132 -0.562581 -2.12132 0 
C -2.12132 0.562581 -1.897805 1.102195 -1.5 1.5 
C -1.102195 1.897805 -0.562581 2.12132 0 2.12132 
z
" style="stroke: #9b6a6a"/>
    </defs>
    <g clip-path="url(#pf3f94d9d30)">
     <use xlink:href="#m83f0e73980" x="245.118988" y="170.500184" style="fill: #9b6a6a; stroke: #9b6a6a"/>
    </g>
   </g>
   <g id="PathCollection_2">
    <defs>
     <path id="mfdb832e492" d="M 0 2.12132 
C 0.562581 2.12132 1.102195 1.897805 1.5 1.5 
C 1.897805 1.102195 2.12132 0.562581 2.12132 0 
C 2.12132 -0.562581 1.897805 -1.102195 1.5 -1.5 
C 1.102195 -1.897805 0.562581 -2.12132 0 -2.12132 
C -0.562581 -2.12132 -1.102195 -1.897805 -1.5 -1.5 
C -1.897805 -1.102195 -2.12132 -0.562581 -2.12132 0 
C -2.12132 0.562581 -1.897805 1.102195 -1.5 1.5 
C -1.102195 1.897805 -0.562581 2.12132 0 2.12132 
z
" style="stroke: #173b63"/>
    </defs>
    <g clip-path="url(#pf3f94d9d30)">
     <use xlink:href="#mfdb832e492" x="229.500353" y="207.809275" style="fill: #173b63; stroke: #173b63"/>
    </g>
   </g>
   <g id="PathCollection_3">
    <g clip-path="url(#pf3f94d9d30)">
     <use xlink:href="#m83f0e73980" x="335.57473" y="245.118366" style="fill: #9b6a6a; stroke: #9b6a6a"/>
    </g>
   </g>
   <g id="text_59">
    <text style="fill: #111827; font: 700 8.8px 'Arial', 'Helvetica', 'Liberation Sans', 'DejaVu Sans', sans-serif; text-anchor: start" x="215.770334" y="162.769275" transform="rotate(-0 215.770334 162.769275)">Bootstrap uncertainty</text>
   </g>
  </g>
  <g id="axes_5">
   <g id="patch_15">
    <path d="M 376.038878 59.736955 
L 479.214302 59.736955 
L 479.214302 29.006203 
L 376.038878 29.006203 
z
" clip-path="url(#pb7bba9bc0d)" style="fill: #f7f9fc; stroke: #9b6a6a; stroke-width: 0.75; stroke-linejoin: miter"/>
   </g>
   <g id="patch_16">
    <path d="M 376.038878 104.651131 
L 479.214302 104.651131 
L 479.214302 73.920379 
L 376.038878 73.920379 
z
" clip-path="url(#pb7bba9bc0d)" style="fill: #f7f9fc; stroke: #9b6a6a; stroke-width: 0.75; stroke-linejoin: miter"/>
   </g>
   <g id="patch_17">
    <path d="M 376.038878 149.565307 
L 479.214302 149.565307 
L 479.214302 118.834555 
L 376.038878 118.834555 
z
" clip-path="url(#pb7bba9bc0d)" style="fill: #f7f9fc; stroke: #9b6a6a; stroke-width: 0.75; stroke-linejoin: miter"/>
   </g>
   <g id="patch_18">
    <path d="M 376.038878 194.479483 
L 479.214302 194.479483 
L 479.214302 163.748731 
L 376.038878 163.748731 
z
" clip-path="url(#pb7bba9bc0d)" style="fill: #f7f9fc; stroke: #5f6673; stroke-width: 0.75; stroke-linejoin: miter"/>
   </g>
   <g id="text_60">
    <text style="fill: #111827; font: 700 10.5px 'Arial', 'Helvetica', 'Liberation Sans', 'DejaVu Sans', sans-serif; text-anchor: start" x="364.824158" y="15.24677" transform="rotate(-0 364.824158 15.24677)">e</text>
   </g>
   <g id="text_61">
    <text style="fill: #111827; font: 700 8.5px 'Arial', 'Helvetica', 'Liberation Sans', 'DejaVu Sans', sans-serif; text-anchor: start" x="376.038878" y="21.914491" transform="rotate(-0 376.038878 21.914491)">verdict rail</text>
   </g>
   <g id="text_62">
    <text style="fill: #9b6a6a; font: 700 7px 'Arial', 'Helvetica', 'Liberation Sans', 'DejaVu Sans', sans-serif; text-anchor: start" x="380.524766" y="41.931083" transform="rotate(-0 380.524766 41.931083)">classification failed</text>
   </g>
   <g id="text_63">
    <text style="fill: #5f6673; font: 6.5px 'Arial', 'Helvetica', 'Liberation Sans', 'DejaVu Sans', sans-serif; text-anchor: start" x="380.524766" y="52.434471" transform="rotate(-0 380.524766 52.434471)">AUC 0.480</text>
   </g>
   <g id="text_64">
    <text style="fill: #9b6a6a; font: 700 7px 'Arial', 'Helvetica', 'Liberation Sans', 'DejaVu Sans', sans-serif; text-anchor: start" x="380.524766" y="86.887915" transform="rotate(-0 380.524766 86.887915)">mean shift unsupported</text>
   </g>
   <g id="text_65">
    <text style="fill: #5f6673; font: 6.5px 'Arial', 'Helvetica', 'Liberation Sans', 'DejaVu Sans', sans-serif; text-anchor: start" x="380.524766" y="97.358296" transform="rotate(-0 380.524766 97.358296)">p 0.585</text>
   </g>
   <g id="text_66">
    <text style="fill: #9b6a6a; font: 700 7px 'Arial', 'Helvetica', 'Liberation Sans', 'DejaVu Sans', sans-serif; text-anchor: start" x="380.524766" y="131.713498" transform="rotate(-0 380.524766 131.713498)">uncertainty crosses zero</text>
   </g>
   <g id="text_67">
    <text style="fill: #5f6673; font: 6.5px 'Arial', 'Helvetica', 'Liberation Sans', 'DejaVu Sans', sans-serif; text-anchor: start" x="380.524766" y="142.262823" transform="rotate(-0 380.524766 142.262823)">mean CI includes 0</text>
   </g>
   <g id="text_68">
    <text style="fill: #5f6673; font: 700 7px 'Arial', 'Helvetica', 'Liberation Sans', 'DejaVu Sans', sans-serif; text-anchor: start" x="380.524766" y="176.67033" transform="rotate(-0 380.524766 176.67033)">KS is shape only</text>
   </g>
   <g id="text_69">
    <text style="fill: #5f6673; font: 6.5px 'Arial', 'Helvetica', 'Liberation Sans', 'DejaVu Sans', sans-serif; text-anchor: start" x="380.524766" y="187.186648" transform="rotate(-0 380.524766 187.186648)">p 1.5e-20</text>
   </g>
   <g id="text_70">
    <text style="fill: #173b63; font: 700 7.2px 'Arial', 'Helvetica', 'Liberation Sans', 'DejaVu Sans', sans-serif" transform="translate(379.511722 237.410171)">Phi is a rejected scalar proxy,</text>
    <text style="fill: #173b63; font: 700 7.2px 'Arial', 'Helvetica', 'Liberation Sans', 'DejaVu Sans', sans-serif" transform="translate(381.070409 245.109896)">not a softened CSRM model.</text>
   </g>
  </g>
 </g>
 <defs>
  <clipPath id="p52ae14489a">
   <rect x="174.989534" y="12.458875" width="178.416" height="131.328"/>
  </clipPath>
  <clipPath id="p1e5b1fb426">
   <rect x="32.256734" y="12.458875" width="117.2448" height="108.3456"/>
  </clipPath>
  <clipPath id="pa4678279c2">
   <rect x="32.256734" y="166.769275" width="152.928" height="82.08"/>
  </clipPath>
  <clipPath id="pf3f94d9d30">
   <rect x="215.770334" y="166.769275" width="127.44" height="82.08"/>
  </clipPath>
  <clipPath id="pb7bba9bc0d">
   <rect x="373.795934" y="12.458875" width="112.1472" height="236.3904"/>
  </clipPath>
 </defs>
</svg>
